<svg width="26" height="26" viewBox="0 0 26 26" fill="none" xmlns="http://www.w3.org/2000/svg">
<path d="M26 13C26 15.3573 25.4193 17.5327 24.258 19.526C23.0967 21.5193 21.5193 23.0967 19.526 24.258C17.5327 25.4193 15.3573 26 13 26C10.6427 26 8.46733 25.4193 6.474 24.258C4.48067 23.0967 2.90333 21.5193 1.742 19.526C0.580667 17.5327 0 15.3573 0 13C0 10.6427 0.580667 8.46733 1.742 6.474C2.90333 4.48067 4.48067 2.90333 6.474 1.742C8.46733 0.580667 10.6427 0 13 0C15.3573 0 17.5327 0.580667 19.526 1.742C21.5193 2.90333 23.0967 4.48067 24.258 6.474C25.4193 8.46733 26 10.6427 26 13ZM22.958 13C22.958 10.2613 21.983 7.917 20.033 5.967C18.083 4.017 15.7387 3.042 13 3.042C10.816 3.042 8.85733 3.68333 7.124 4.966L7.176 5.018C6.344 5.62467 5.62467 6.344 5.018 7.176L4.966 7.124C3.68333 8.85733 3.042 10.816 3.042 13C3.042 15.7387 4.017 18.083 5.967 20.033C7.917 21.983 10.2613 22.958 13 22.958C15.184 22.958 17.1427 22.3167 18.876 21.034L18.824 20.982C19.656 20.3753 20.3753 19.656 20.982 18.824L21.034 18.876C22.3167 17.1427 22.958 15.184 22.958 13ZM17.68 18.2C17.68 18.6333 17.5283 19.0017 17.225 19.305C16.9217 19.6083 16.5533 19.76 16.12 19.76C15.6693 19.76 15.3053 19.604 15.028 19.292L11.908 16.172C11.596 15.86 11.44 15.3227 11.44 14.56V6.24C11.44 5.80667 11.5917 5.43833 11.895 5.135C12.1983 4.83167 12.5667 4.68 13 4.68C13.4333 4.68 13.8017 4.83167 14.105 5.135C14.4083 5.43833 14.56 5.80667 14.56 6.24V14.43L17.212 17.108C17.524 17.3853 17.68 17.7493 17.68 18.2Z" fill="#003268"/>
</svg>
