<svg width="31" height="31" viewBox="0 0 31 31" fill="none" xmlns="http://www.w3.org/2000/svg">
<path d="M26.2606 3.75153H25.0102V1.25043C25.0102 0.560326 24.4498 0 23.7595 0H22.5091C21.8187 0 21.2586 0.560326 21.2586 1.25043V3.75153H8.75345V1.25043C8.75345 0.560326 8.19336 0 7.50302 0H6.2526C5.56226 0 5.00194 0.560326 5.00194 1.25043V3.75153H3.75151C1.6832 3.75153 0 5.43474 0 7.50306V26.2607C0 28.329 1.6832 30.0123 3.75151 30.0123H26.2606C28.3289 30.0123 30.0121 28.329 30.0121 26.2607V7.50306C30.0121 5.43474 28.3289 3.75153 26.2606 3.75153ZM27.511 26.2607C27.511 26.9497 26.9496 27.5112 26.2606 27.5112H3.75151C3.06252 27.5112 2.50109 26.9497 2.50109 26.2607V12.5552H27.511V26.2607Z" fill="#003268"/>
<path d="M9.38124 15.0823H5.56934V18.8941H9.38124V15.0823Z" fill="#003268"/>
<path d="M16.806 15.082H12.9941V18.8939H16.806V15.082Z" fill="#003268"/>
<path d="M23.3021 15.0818H19.4902V18.8936H23.3021V15.0818Z" fill="#003268"/>
<path d="M9.38027 21.3469H5.56836V25.1589H9.38027V21.3469Z" fill="#003268"/>
<path d="M16.806 21.3467H12.9941V25.1587H16.806V21.3467Z" fill="#003268"/>
<path d="M23.3021 21.3464H19.4902V25.1584H23.3021V21.3464Z" fill="#003268"/>
</svg>
