<svg width="19" height="19" viewBox="0 0 19 19" fill="none" xmlns="http://www.w3.org/2000/svg">
<path d="M19 9.5C19 11.2227 18.5757 12.8123 17.727 14.269C16.8783 15.7257 15.7257 16.8783 14.269 17.727C12.8123 18.5757 11.2227 19 9.5 19C7.77733 19 6.18767 18.5757 4.731 17.727C3.27433 16.8783 2.12167 15.7257 1.273 14.269C0.424333 12.8123 0 11.2227 0 9.5C0 7.77733 0.424333 6.18767 1.273 4.731C2.12167 3.27433 3.27433 2.12167 4.731 1.273C6.18767 0.424333 7.77733 0 9.5 0C11.2227 0 12.8123 0.424333 14.269 1.273C15.7257 2.12167 16.8783 3.27433 17.727 4.731C18.5757 6.18767 19 7.77733 19 9.5ZM16.777 9.5C16.777 7.49867 16.0645 5.7855 14.6395 4.3605C13.2145 2.9355 11.5013 2.223 9.5 2.223C7.904 2.223 6.47267 2.69167 5.206 3.629L5.244 3.667C4.636 4.11033 4.11033 4.636 3.667 5.244L3.629 5.206C2.69167 6.47267 2.223 7.904 2.223 9.5C2.223 11.5013 2.9355 13.2145 4.3605 14.6395C5.7855 16.0645 7.49867 16.777 9.5 16.777C11.096 16.777 12.5273 16.3083 13.794 15.371L13.756 15.333C14.364 14.8897 14.8897 14.364 15.333 13.756L15.371 13.794C16.3083 12.5273 16.777 11.096 16.777 9.5ZM12.92 13.3C12.92 13.6167 12.8092 13.8858 12.5875 14.1075C12.3658 14.3292 12.0967 14.44 11.78 14.44C11.4507 14.44 11.1847 14.326 10.982 14.098L8.702 11.818C8.474 11.59 8.36 11.1973 8.36 10.64V4.56C8.36 4.24333 8.47083 3.97417 8.6925 3.7525C8.91417 3.53083 9.18333 3.42 9.5 3.42C9.81667 3.42 10.0858 3.53083 10.3075 3.7525C10.5292 3.97417 10.64 4.24333 10.64 4.56V10.545L12.578 12.502C12.806 12.7047 12.92 12.9707 12.92 13.3Z" fill="#003268"/>
</svg>
