<svg width="24" height="24" viewBox="0 0 24 24" fill="none" xmlns="http://www.w3.org/2000/svg">
<path d="M20.1357 2.87654H19.1769V0.958787C19.1769 0.429638 18.7473 0 18.2179 0H17.2592C16.7298 0 16.3004 0.429638 16.3004 0.958787V2.87654H6.71183V0.958787C6.71183 0.429638 6.28238 0 5.75305 0H4.79427C4.26494 0 3.83531 0.429638 3.83531 0.958787V2.87654H2.87653C1.29062 2.87654 0 4.16716 0 5.75308V20.1358C0 21.7217 1.29062 23.0123 2.87653 23.0123H20.1357C21.7216 23.0123 23.0122 21.7217 23.0122 20.1358V5.75308C23.0122 4.16716 21.7216 2.87654 20.1357 2.87654ZM21.0945 20.1358C21.0945 20.6641 20.664 21.0946 20.1357 21.0946H2.87653C2.34823 21.0946 1.91774 20.6641 1.91774 20.1358V9.62688H21.0945V20.1358Z" fill="#003268"/>
<path d="M7.19334 11.5647H4.27051V14.4875H7.19334V11.5647Z" fill="#003268"/>
<path d="M12.8857 11.5645H9.96289V14.4872H12.8857V11.5645Z" fill="#003268"/>
<path d="M17.8671 11.5645H14.9443V14.4872H17.8671V11.5645Z" fill="#003268"/>
<path d="M7.19237 16.3679H4.26953V19.2908H7.19237V16.3679Z" fill="#003268"/>
<path d="M12.8857 16.3679H9.96289V19.2908H12.8857V16.3679Z" fill="#003268"/>
<path d="M17.8671 16.3679H14.9443V19.2908H17.8671V16.3679Z" fill="#003268"/>
</svg>
