<svg width="17" height="22" viewBox="0 0 17 22" fill="none" xmlns="http://www.w3.org/2000/svg">
<path d="M8.01763 0C5.89201 0.00255958 3.85419 0.842848 2.35115 2.33655C0.848115 3.83026 0.00257557 5.85542 0 7.96784C0 13.4209 7.17577 21.4255 7.48137 21.7641C7.54907 21.8384 7.63168 21.8977 7.72387 21.9384C7.81607 21.979 7.9158 22 8.01666 22C8.11751 22 8.21725 21.979 8.30945 21.9384C8.40164 21.8977 8.48425 21.8384 8.55195 21.7641C8.85755 21.4255 16.0333 13.4209 16.0333 7.96784C16.0307 5.85576 15.1855 3.83089 13.6828 2.33724C12.1802 0.843586 10.1429 0.00307132 8.01763 0ZM8.01763 11.9769C7.21976 11.9769 6.4398 11.7418 5.77639 11.3013C5.11299 10.8607 4.59592 10.2346 4.29059 9.50204C3.98526 8.76948 3.90537 7.96339 4.06103 7.18571C4.21668 6.40803 4.6009 5.69368 5.16508 5.133C5.72926 4.57232 6.44807 4.1905 7.23061 4.03581C8.01316 3.88111 8.82428 3.96051 9.56142 4.26394C10.2986 4.56738 10.9286 5.08123 11.3719 5.74052C11.8152 6.39981 12.0518 7.17492 12.0518 7.96784C12.0505 9.03072 11.625 10.0497 10.8688 10.8013C10.1125 11.5528 9.08715 11.9756 8.01763 11.9769Z" fill="#F7F7F7"/>
</svg>
