<svg width="23" height="20" viewBox="0 0 23 20" fill="none" xmlns="http://www.w3.org/2000/svg">
<path d="M21.7546 15.3584L18.3184 12.3514C17.9588 12.0627 17.5092 11.9089 17.0477 11.9166C16.5862 11.9242 16.142 12.0929 15.7922 12.3934L14.0606 13.9074L13.7189 13.7374C12.2122 13.0609 10.8096 12.174 9.55323 11.1034C8.36444 10.0512 7.34656 8.82124 6.53596 7.45739C6.47083 7.35739 6.4087 7.25739 6.34958 7.16539L7.515 6.15139L8.08719 5.65139C8.25319 5.52046 8.38813 5.35452 8.48233 5.16544C8.57653 4.97637 8.62766 4.76885 8.63207 4.55774C8.63647 4.34663 8.59404 4.13716 8.50781 3.94434C8.42158 3.75152 8.29368 3.58011 8.13328 3.44239L4.69113 0.437395C4.33187 0.147647 3.8821 -0.00706239 3.42024 0.000247675C2.95838 0.00755774 2.51374 0.176423 2.16388 0.477395L1.20188 1.32839L1.22693 1.35139C0.897896 1.71817 0.627497 2.13338 0.425265 2.58239C0.247895 2.9797 0.128437 3.4003 0.0705281 3.83139C-0.384417 7.12139 1.33516 10.1314 5.99985 14.2094C12.4503 19.8484 17.6481 19.4234 17.8725 19.4024C18.3602 19.3521 18.8406 19.2468 19.3045 19.0884C19.8015 18.9212 20.2734 18.6873 20.7074 18.3934L20.7285 18.4104L21.7115 17.5694C21.877 17.4378 22.0115 17.2715 22.1052 17.0821C22.1989 16.8928 22.2497 16.6851 22.2538 16.474C22.2579 16.2629 22.2153 16.0534 22.129 15.8606C22.0427 15.6677 21.9149 15.4963 21.7546 15.3584Z" fill="#F7F7F7"/>
</svg>
