<svg width="37" height="30" viewBox="0 0 37 30" fill="none" xmlns="http://www.w3.org/2000/svg">
<path d="M29.2025 17.6576C28.911 17.659 28.6256 17.5738 28.3826 17.4129C28.1395 17.252 27.9497 17.0225 27.8372 16.7536C27.7247 16.4847 27.6945 16.1884 27.7505 15.9023C27.8066 15.6163 27.9462 15.3533 28.1519 15.1467C28.3575 14.94 28.6198 14.7991 28.9056 14.7417C29.1914 14.6844 29.4878 14.7131 29.7573 14.8243C30.0267 14.9356 30.2571 15.1243 30.4192 15.3665C30.5813 15.6088 30.6678 15.8938 30.6678 16.1853C30.6692 16.3784 30.6323 16.5699 30.5592 16.7487C30.4862 16.9275 30.3784 17.0901 30.2421 17.227C30.1059 17.3639 29.9439 17.4724 29.7654 17.5464C29.587 17.6203 29.3956 17.6581 29.2025 17.6576ZM22.0391 17.6576C21.7476 17.659 21.4623 17.5738 21.2192 17.4129C20.9762 17.252 20.7864 17.0225 20.6738 16.7536C20.5613 16.4847 20.5312 16.1884 20.5872 15.9023C20.6432 15.6163 20.7829 15.3533 20.9885 15.1467C21.1941 14.94 21.4565 14.7991 21.7423 14.7417C22.0281 14.6844 22.3245 14.7131 22.5939 14.8243C22.8634 14.9356 23.0937 15.1243 23.2558 15.3665C23.4179 15.6088 23.5045 15.8938 23.5045 16.1853C23.5059 16.3784 23.4691 16.57 23.3961 16.7488C23.323 16.9277 23.2153 17.0903 23.079 17.2272C22.9427 17.3641 22.7807 17.4727 22.6022 17.5465C22.4237 17.6204 22.2323 17.6582 22.0391 17.6576ZM32.7025 25.9911C34.9818 24.3568 36.4471 21.9064 36.4471 19.1286C36.4471 14.145 31.6445 10.0596 25.6211 10.0596C19.5978 10.0596 14.7944 14.145 14.7944 19.1286C14.7944 24.1121 19.5971 28.1969 25.6211 28.1969C26.8418 28.1969 28.0631 28.0335 29.1211 27.7061C29.2957 27.6458 29.3651 27.624 29.4465 27.624C29.6474 27.6288 29.8437 27.6853 30.0165 27.7881L32.3806 29.177C32.4571 29.2171 32.5395 29.2448 32.6246 29.2591C32.7093 29.2533 32.789 29.217 32.849 29.1569C32.909 29.0968 32.9451 29.017 32.9507 28.9323C32.9453 28.8401 32.9271 28.749 32.8967 28.6617C32.8679 28.5593 32.5461 27.5399 32.3806 26.89C32.3655 26.8098 32.3577 26.7283 32.3575 26.6467C32.3585 26.5172 32.3909 26.3899 32.4519 26.2757C32.513 26.1615 32.6009 26.0638 32.7081 25.9911" fill="#003268"/>
<path d="M17.8065 9.24261C17.3515 9.24261 16.9151 9.06185 16.5933 8.74011C16.2716 8.41836 16.0908 7.98198 16.0908 7.52697C16.0908 7.07195 16.2716 6.63557 16.5933 6.31383C16.9151 5.99208 17.3515 5.81133 17.8065 5.81133C18.7018 5.81133 19.5158 6.62813 19.5158 7.52697C19.5972 8.4258 18.7831 9.24261 17.8065 9.24261ZM9.1785 9.24261C8.83903 9.24386 8.50682 9.14437 8.22392 8.95674C7.94101 8.7691 7.72013 8.50176 7.58923 8.18855C7.45833 7.87533 7.42329 7.53032 7.48854 7.19718C7.5538 6.86404 7.71642 6.55775 7.95582 6.31707C8.19523 6.07639 8.50065 5.91214 8.83344 5.84511C9.16623 5.77808 9.51142 5.81129 9.82533 5.94052C10.1392 6.06976 10.4077 6.28922 10.5969 6.57112C10.786 6.85302 10.8873 7.18469 10.8878 7.52416C10.886 7.97753 10.7055 8.41189 10.3855 8.73306C10.0655 9.05422 9.63185 9.2363 9.1785 9.23981V9.24261ZM13.4925 0.0922852C6.32914 0.0922852 0.549805 4.91249 0.549805 10.9597C0.549805 14.2276 2.25914 17.1688 5.02646 19.1298C5.27115 19.2918 5.31743 19.6535 5.31743 19.7938C5.32329 19.9007 5.30755 20.0078 5.27115 20.1086C5.02646 20.9254 4.71446 22.2477 4.70114 22.3178C4.68782 22.3879 4.61981 22.5632 4.61981 22.6445C4.61634 22.6989 4.62446 22.7534 4.64365 22.8045C4.66283 22.8555 4.69262 22.9019 4.73107 22.9405C4.76951 22.9791 4.81572 23.0092 4.86665 23.0286C4.91757 23.0481 4.97204 23.0565 5.02646 23.0533C5.11378 23.0478 5.19814 23.0195 5.27115 22.9713L8.12191 21.3362C8.3666 21.1729 8.52926 21.1729 8.77325 21.1729C8.91286 21.1749 9.05091 21.2025 9.1806 21.2542C10.4826 21.663 11.9479 21.8263 13.4133 21.8263H14.1459C13.879 20.9525 13.7418 20.0442 13.7386 19.1305C13.7386 13.6562 19.0299 9.24471 25.542 9.24471H26.2746C25.3765 4.09568 20.0045 0.0922852 13.4925 0.0922852Z" fill="#003268"/>
</svg>
