<svg width="66" height="66" viewBox="0 0 66 66" fill="none" xmlns="http://www.w3.org/2000/svg">
<path d="M51.6203 37.4552C51.1222 37.4577 50.6346 37.3069 50.2193 37.0219C49.804 36.7369 49.4796 36.3305 49.2874 35.8543C49.0951 35.3781 49.0436 34.8534 49.1393 34.3469C49.235 33.8403 49.4737 33.3745 49.8251 33.0086C50.1765 32.6427 50.6247 32.3932 51.1131 32.2916C51.6015 32.1899 52.108 32.2408 52.5684 32.4378C53.0288 32.6348 53.4225 32.969 53.6994 33.398C53.9764 33.8271 54.1243 34.3317 54.1243 34.8479C54.1267 35.1899 54.0636 35.5291 53.9388 35.8457C53.8139 36.1623 53.6298 36.4502 53.3969 36.6926C53.1641 36.9351 52.8872 37.1273 52.5823 37.2582C52.2773 37.3891 51.9504 37.4561 51.6203 37.4552ZM39.3797 37.4552C38.8815 37.4577 38.3939 37.3069 37.9786 37.0219C37.5633 36.7369 37.239 36.3305 37.0467 35.8543C36.8544 35.3781 36.8029 34.8534 36.8986 34.3469C36.9943 33.8403 37.233 33.3745 37.5844 33.0086C37.9358 32.6427 38.384 32.3932 38.8724 32.2916C39.3608 32.1899 39.8673 32.2408 40.3277 32.4378C40.7881 32.6348 41.1818 32.969 41.4588 33.398C41.7358 33.8271 41.8836 34.3317 41.8836 34.8479C41.8862 35.19 41.8232 35.5292 41.6984 35.8459C41.5736 36.1626 41.3895 36.4505 41.1566 36.693C40.9238 36.9355 40.6468 37.1277 40.3418 37.2585C40.0368 37.3894 39.7098 37.4562 39.3797 37.4552ZM57.6011 52.2129C61.496 49.3187 64 44.9793 64 40.0601C64 31.2348 55.7932 24 45.5006 24C35.208 24 27 31.2348 27 40.0601C27 48.8854 35.2068 56.119 45.5006 56.119C47.5864 56.119 49.6735 55.8297 51.4814 55.2499C51.7797 55.1431 51.8983 55.1046 52.0373 55.1046C52.3806 55.113 52.7161 55.2131 53.0113 55.3951L57.0512 57.8547C57.1819 57.9257 57.3226 57.9748 57.4681 58C57.6128 57.9898 57.7491 57.9255 57.8515 57.8191C57.954 57.7127 58.0157 57.5714 58.0252 57.4214C58.016 57.258 57.9849 57.0967 57.933 56.9422C57.8839 56.7609 57.3339 54.9556 57.0512 53.8046C57.0253 53.6626 57.012 53.5184 57.0117 53.3738C57.0133 53.1445 57.0687 52.919 57.173 52.7168C57.2774 52.5146 57.4276 52.3416 57.6107 52.2129" fill="#002B59"/>
<path d="M31.516 22.9402C30.7377 22.9402 29.9914 22.6253 29.441 22.0648C28.8907 21.5043 28.5816 20.7441 28.5816 19.9515C28.5816 19.1588 28.8907 18.3986 29.441 17.8381C29.9914 17.2776 30.7377 16.9628 31.516 16.9628C33.0474 16.9628 34.4397 18.3857 34.4397 19.9515C34.5788 21.5173 33.1865 22.9402 31.516 22.9402ZM16.7586 22.9402C16.178 22.9424 15.6098 22.769 15.1259 22.4422C14.642 22.1153 14.2642 21.6496 14.0403 21.104C13.8164 20.5583 13.7565 19.9573 13.8681 19.377C13.9797 18.7966 14.2579 18.2631 14.6673 17.8438C15.0768 17.4245 15.5992 17.1384 16.1684 17.0216C16.7376 16.9049 17.328 16.9627 17.865 17.1878C18.4019 17.413 18.8611 17.7953 19.1846 18.2863C19.5081 18.7774 19.6813 19.3552 19.6823 19.9466C19.6791 20.7364 19.3704 21.493 18.8231 22.0525C18.2758 22.612 17.534 22.9292 16.7586 22.9353V22.9402ZM24.1373 7C11.885 7 2 15.397 2 25.9313C2 31.6242 4.92366 36.7478 9.65692 40.164C10.0754 40.4462 10.1546 41.0764 10.1546 41.3207C10.1646 41.507 10.1377 41.6935 10.0754 41.8691C9.65692 43.292 9.12327 45.5955 9.10049 45.7176C9.0777 45.8398 8.96138 46.1451 8.96138 46.2868C8.95545 46.3816 8.96934 46.4765 9.00215 46.5654C9.03495 46.6543 9.08592 46.7351 9.15168 46.8024C9.21743 46.8697 9.29647 46.922 9.38357 46.9559C9.47067 46.9898 9.56385 47.0044 9.65692 46.9989C9.80628 46.9892 9.95057 46.94 10.0754 46.856L14.9514 44.0077C15.3699 43.7231 15.6481 43.7231 16.0655 43.7231C16.3043 43.7267 16.5404 43.7747 16.7622 43.8648C18.9891 44.5769 21.4955 44.8614 24.0018 44.8614H25.255C24.7985 43.3392 24.5637 41.7569 24.5582 40.1653C24.5582 30.6287 33.6086 22.9438 44.7468 22.9438H46C44.4638 13.9741 35.2755 7 24.1373 7Z" fill="#002B59"/>
</svg>
