<svg width="30" height="35" viewBox="0 0 30 35" fill="none" xmlns="http://www.w3.org/2000/svg">
<path d="M1.77574 13.6332C1.59017 13.6349 1.40745 13.5865 1.24614 13.4929C1.12783 13.4252 1.02397 13.334 0.940638 13.2248C0.857305 13.1156 0.796174 12.9905 0.760821 12.857C0.725468 12.7234 0.716604 12.584 0.734747 12.4469C0.752889 12.3098 0.797675 12.1777 0.866483 12.0585C2.19255 9.80225 6.22714 4.53613 15.0309 4.53613C18.8461 4.53613 22.1922 5.55767 24.9716 7.57128C27.2592 9.22382 28.5412 11.0944 29.152 11.9954C29.2294 12.1089 29.2838 12.2371 29.3119 12.3724C29.3401 12.5078 29.3413 12.6474 29.3157 12.7833C29.2901 12.9191 29.238 13.0483 29.1627 13.1633C29.0873 13.2783 28.9901 13.3768 28.8768 13.453C28.6453 13.609 28.3634 13.6669 28.0906 13.6146C27.8179 13.5622 27.5759 13.4037 27.416 13.1725C26.3107 11.5522 22.9405 6.62197 15.0309 6.62197C7.31041 6.62197 3.81987 11.1589 2.68294 13.1045C2.59159 13.267 2.45934 13.4017 2.29986 13.4946C2.14037 13.5875 1.95944 13.6354 1.77574 13.6332Z" fill="#003268"/>
<path d="M19.4672 34.2467C19.3794 34.2477 19.2918 34.2376 19.2065 34.2165C12.8203 32.6039 10.4358 26.0961 10.3388 25.8255L10.3237 25.7659C10.2714 25.578 8.99002 21.1154 10.9571 18.5016C11.8588 17.3097 13.2303 16.6983 15.0412 16.6983C16.7249 16.6983 17.9396 17.2319 18.7746 18.3361C19.4624 19.2378 19.7375 20.3497 20.0037 21.4211C20.5628 23.652 20.9666 24.8236 23.2906 24.9442C24.3113 24.9968 24.9819 24.3882 25.3622 23.8701C26.3905 22.4573 26.5693 20.1541 25.7942 18.1209C24.7983 15.4966 21.2637 10.5488 15.0316 10.5488C12.3712 10.5488 9.9268 11.4203 7.96659 13.0581C6.34409 14.4148 5.0586 16.3302 4.43959 18.299C3.29166 21.9644 4.79724 27.7262 4.81168 27.7788C4.84684 27.9129 4.8553 28.0528 4.83656 28.1903C4.81782 28.3278 4.77227 28.4601 4.70259 28.5793C4.63292 28.6986 4.54052 28.8024 4.43085 28.8847C4.32118 28.9669 4.19647 29.026 4.06405 29.0584C3.79654 29.1309 3.51181 29.0937 3.27088 28.9548C3.02995 28.8158 2.85198 28.5862 2.77513 28.3152C2.70635 28.0523 1.09829 21.9069 2.42435 17.6708C3.86872 13.0805 8.3263 8.45312 15.0337 8.45312C18.1335 8.45312 21.0622 9.52724 23.5066 11.5556C25.3994 13.1331 26.9455 15.2519 27.7544 17.37C28.7826 20.0742 28.5068 23.1094 27.0535 25.0921C26.0851 26.4144 24.7061 27.1057 23.1785 27.0307C19.1989 26.8274 18.4836 23.9956 17.9623 21.9301C17.4258 19.8113 17.0826 18.7897 15.0337 18.7897C13.9084 18.7897 13.1182 19.1053 12.6264 19.7587C11.9558 20.6526 11.9035 22.05 11.9778 23.0638C12.0266 23.7701 12.1441 24.4698 12.3286 25.1524C12.4923 25.5731 14.6237 30.9016 19.7285 32.191C19.8605 32.2228 19.9849 32.2811 20.0946 32.3624C20.2042 32.4437 20.2969 32.5464 20.3673 32.6645C20.4377 32.7827 20.4844 32.9139 20.5046 33.0506C20.5248 33.1872 20.5182 33.3267 20.4851 33.4607C20.4228 33.687 20.2896 33.8863 20.1058 34.0282C19.922 34.1701 19.6977 34.2468 19.4672 34.2467Z" fill="#003268"/>
<path d="M11.2688 33.7655C11.1257 33.7658 10.9839 33.7367 10.8521 33.68C10.7202 33.6233 10.6009 33.54 10.5012 33.4353C7.94541 30.7009 6.49966 27.6433 5.95562 23.8201V23.7998C5.65024 21.2687 6.09731 17.6853 8.28793 15.2216C9.90493 13.4036 12.1781 12.4795 15.0324 12.4795C18.4081 12.4795 21.0609 14.0794 22.7151 17.0992C23.9153 19.293 24.1532 21.4791 24.1594 21.5688C24.172 21.7072 24.1577 21.8467 24.1173 21.9795C24.0769 22.1122 24.0112 22.2355 23.924 22.3423C23.8368 22.4491 23.7298 22.5373 23.6091 22.6019C23.4884 22.6665 23.3564 22.7062 23.2206 22.7187C22.9467 22.749 22.672 22.6682 22.4559 22.4939C22.2399 22.3196 22.0998 22.0656 22.0658 21.7869C21.8846 20.4752 21.4682 19.2087 20.8374 18.0506C19.5553 15.7446 17.6048 14.5723 15.0249 14.5723C12.7964 14.5723 11.0529 15.2559 9.85334 16.6056C8.12423 18.5512 7.78996 21.5485 8.02725 23.5313C8.50389 26.9121 9.77837 29.6016 12.0288 32.005C12.1228 32.1046 12.1961 32.2224 12.2444 32.3515C12.2928 32.4806 12.3152 32.6182 12.3103 32.7563C12.3055 32.8944 12.2734 33.0301 12.2161 33.1552C12.1587 33.2804 12.0773 33.3926 11.9766 33.4851C11.7826 33.6643 11.5306 33.7641 11.2688 33.7655Z" fill="#003268"/>
<path d="M23.045 30.7536C20.8097 30.7536 18.9093 30.1226 17.3886 28.8683C14.3334 26.359 13.9909 22.2721 13.9758 22.0996C13.9542 21.8165 14.0439 21.5363 14.2251 21.3206C14.4063 21.1049 14.6641 20.9714 14.9418 20.9495C15.2195 20.9275 15.4944 21.0189 15.706 21.2036C15.9176 21.3883 16.0486 21.6511 16.0701 21.9342C16.0777 21.9945 16.383 25.3374 18.7381 27.2627C20.1315 28.3971 21.9941 28.8472 24.2892 28.5843C24.5635 28.5504 24.8399 28.6286 25.0578 28.8017C25.2757 28.9749 25.4176 29.2289 25.4523 29.5084C25.4673 29.6464 25.4552 29.7861 25.4167 29.9194C25.3782 30.0526 25.314 30.1767 25.228 30.2844C25.1419 30.392 25.0357 30.4812 24.9155 30.5466C24.7953 30.612 24.6635 30.6523 24.5279 30.6652C24.0357 30.7238 23.5406 30.7533 23.045 30.7536ZM24.8113 2.89175C23.9391 2.31332 20.8468 0.592773 15.0322 0.592773C8.92875 0.592773 5.82887 2.49351 5.14314 2.97658C5.09785 3.00492 5.05545 3.0378 5.01658 3.07474C5.01248 3.07878 5.00714 3.08126 5.00145 3.08175C4.89195 3.17921 4.80409 3.29935 4.74372 3.43415C4.68335 3.56895 4.65187 3.71532 4.65137 3.8635C4.65325 4.00241 4.682 4.13957 4.73597 4.26712C4.78995 4.39468 4.86809 4.51013 4.96591 4.60685C5.06373 4.70357 5.17931 4.77966 5.30603 4.83077C5.43275 4.88187 5.56812 4.90698 5.70438 4.90466C5.92278 4.90451 6.1359 4.83626 6.31514 4.70905C6.34471 4.68662 9.01266 2.68842 15.0343 2.68842C21.0559 2.68842 23.7383 4.67961 23.7672 4.69433C23.9503 4.83275 24.1727 4.90659 24.4006 4.90466C24.537 4.9068 24.6725 4.88145 24.7992 4.83009C24.9259 4.77873 25.0415 4.70235 25.1392 4.60536C25.2369 4.50836 25.3149 4.39264 25.3686 4.26485C25.4223 4.13707 25.4508 3.99972 25.4523 3.8607C25.4523 3.65245 25.3913 3.44895 25.2771 3.2763C25.1629 3.10365 25.0007 2.96973 24.8113 2.89175Z" fill="#003268"/>
</svg>
