<svg width="66" height="78" viewBox="0 0 66 78" fill="none" xmlns="http://www.w3.org/2000/svg">
<path d="M2.45252 30.4227C2.02965 30.4266 1.6133 30.3159 1.24575 30.1018C0.976153 29.9466 0.739489 29.738 0.549602 29.4881C0.359714 29.2382 0.220416 28.952 0.139859 28.6463C0.0593021 28.3406 0.0391031 28.0215 0.0804443 27.7077C0.121785 27.394 0.223837 27.0918 0.380626 26.8188C3.40228 21.6554 12.5957 9.60352 32.6565 9.60352C41.35 9.60352 48.9746 11.9414 55.3079 16.5497C60.5205 20.3316 63.4419 24.6126 64.8336 26.6744C65.0101 26.9343 65.134 27.2278 65.1981 27.5374C65.2622 27.8471 65.2651 28.1668 65.2067 28.4776C65.1483 28.7885 65.0297 29.0842 64.858 29.3474C64.6862 29.6107 64.4648 29.836 64.2067 30.0103C63.6792 30.3673 63.0366 30.5 62.4152 30.3802C61.7938 30.2603 61.2424 29.8975 60.8779 29.3685C58.3593 25.6604 50.6798 14.3771 32.6565 14.3771C15.0642 14.3771 7.11038 24.7602 4.51972 29.2129C4.31157 29.5847 4.01021 29.8929 3.6468 30.1055C3.28339 30.3182 2.8711 30.4277 2.45252 30.4227Z" fill="#003268"/>
<path d="M42.7632 77.5966C42.5631 77.5991 42.3636 77.5759 42.1692 77.5276C27.6173 73.8371 22.1837 58.9436 21.9627 58.3242L21.9282 58.1879C21.8091 57.7578 18.8893 47.5448 23.3716 41.563C25.4263 38.8352 28.5514 37.4361 32.6779 37.4361C36.5146 37.4361 39.2823 38.6571 41.185 41.1843C42.7522 43.2478 43.3791 45.7926 43.9856 48.2444C45.2598 53.3501 46.1798 56.0313 51.4755 56.3073C53.8013 56.4276 55.3294 55.0349 56.196 53.8491C58.5391 50.6159 58.9466 45.3449 57.1803 40.6917C54.9109 34.6858 46.8568 23.3624 32.656 23.3624C26.5939 23.3624 21.0239 25.3569 16.5573 29.1052C12.8601 32.21 9.93094 36.5937 8.52042 41.0993C5.90469 49.4879 9.33539 62.6742 9.3683 62.7946C9.4484 63.1014 9.46768 63.4216 9.42498 63.7363C9.38229 64.0509 9.2785 64.3536 9.11972 64.6266C8.96095 64.8995 8.75041 65.1371 8.50051 65.3254C8.25062 65.5137 7.96643 65.6488 7.6647 65.7229C7.05514 65.8888 6.40634 65.8037 5.85734 65.4858C5.30833 65.1679 4.90281 64.6424 4.72769 64.022C4.57096 63.4203 0.906739 49.3563 3.92839 39.6616C7.21961 29.1565 17.3769 18.5664 32.6607 18.5664C39.7243 18.5664 46.3976 21.0246 51.9676 25.6666C56.2807 29.2769 59.8038 34.1258 61.6469 38.9732C63.99 45.162 63.3615 52.1082 60.0499 56.6459C57.8432 59.6721 54.7009 61.2542 51.22 61.0825C42.152 60.6172 40.522 54.1363 39.334 49.4093C38.1116 44.5603 37.3295 42.2225 32.6607 42.2225C30.0967 42.2225 28.2959 42.9445 27.1753 44.44C25.6473 46.4858 25.5282 49.6837 25.6974 52.0039C25.8085 53.6204 26.0763 55.2216 26.4967 56.7839C26.8697 57.7466 31.7266 69.9413 43.3587 72.8921C43.6594 72.965 43.9429 73.0983 44.1928 73.2844C44.4426 73.4704 44.6539 73.7055 44.8143 73.9758C44.9747 74.2462 45.081 74.5465 45.1271 74.8593C45.1732 75.1721 45.1581 75.4911 45.0827 75.7979C44.9408 76.3158 44.6372 76.7719 44.2184 77.0967C43.7996 77.4214 43.2885 77.597 42.7632 77.5966Z" fill="#003268"/>
<path d="M24.0847 76.4938C23.7585 76.4945 23.4355 76.4279 23.135 76.2981C22.8345 76.1682 22.5627 75.9778 22.3356 75.738C16.5117 69.4802 13.2174 62.4827 11.9777 53.7331V53.6865C11.2818 47.8941 12.3005 39.6932 17.2922 34.0547C20.9768 29.8941 26.1566 27.7793 32.6606 27.7793C40.3527 27.7793 46.3975 31.4409 50.1668 38.3517C52.9016 43.3724 53.4439 48.3754 53.458 48.5808C53.4866 48.8975 53.454 49.2168 53.362 49.5206C53.2699 49.8243 53.1203 50.1065 52.9215 50.3509C52.7228 50.5954 52.479 50.7973 52.2039 50.9451C51.9289 51.0929 51.6281 51.1837 51.3187 51.2123C50.6945 51.2817 50.0686 51.0969 49.5763 50.6979C49.084 50.299 48.7647 49.7178 48.6873 49.0798C48.2745 46.078 47.3256 43.1795 45.8882 40.5291C42.9668 35.2517 38.5221 32.5689 32.6434 32.5689C27.5655 32.5689 23.5925 34.1334 20.8593 37.2221C16.9192 41.6748 16.1575 48.5343 16.6982 53.072C17.7843 60.8092 20.6884 66.9643 25.8165 72.4647C26.0305 72.6927 26.1976 72.9624 26.3078 73.2577C26.4179 73.5531 26.469 73.8682 26.4579 74.1842C26.4468 74.5002 26.3737 74.8106 26.2431 75.0971C26.1124 75.3836 25.9268 75.6403 25.6974 75.8519C25.2554 76.2621 24.6811 76.4906 24.0847 76.4938Z" fill="#003268"/>
<path d="M50.9143 69.6012C45.8208 69.6012 41.4905 68.1571 38.0253 65.2865C31.0636 59.5438 30.2831 50.1908 30.2486 49.7961C30.1996 49.1482 30.4039 48.5069 30.8167 48.0132C31.2295 47.5196 31.817 47.214 32.4498 47.1638C33.0826 47.1136 33.7091 47.3228 34.1912 47.7454C34.6734 48.1681 34.9718 48.7695 35.0209 49.4174C35.0381 49.5554 35.734 57.2059 41.1002 61.6121C44.2755 64.2083 48.5196 65.2384 53.7495 64.6367C54.3745 64.559 55.0042 64.7379 55.5008 65.1342C55.9974 65.5305 56.3206 66.112 56.3997 66.7515C56.4339 67.0674 56.4063 67.3871 56.3186 67.692C56.2308 67.9969 56.0847 68.2809 55.8886 68.5273C55.6925 68.7738 55.4505 68.9778 55.1766 69.1274C54.9027 69.2771 54.6024 69.3694 54.2933 69.399C53.1717 69.533 52.0435 69.6005 50.9143 69.6012ZM54.939 5.83753C52.9517 4.51376 45.9054 0.576172 32.6559 0.576172C18.7482 0.576172 11.6846 4.92614 10.122 6.03168C10.0188 6.09653 9.92224 6.17179 9.83367 6.25632C9.82433 6.26557 9.81215 6.27124 9.79919 6.27236C9.54968 6.49541 9.34946 6.77034 9.21191 7.07884C9.07435 7.38734 9.00261 7.72232 9.00146 8.06145C9.00575 8.37934 9.07127 8.69324 9.19426 8.98517C9.31725 9.27709 9.49529 9.5413 9.71819 9.76265C9.94109 9.984 10.2045 10.1581 10.4932 10.2751C10.782 10.3921 11.0904 10.4495 11.4009 10.4442C11.8986 10.4439 12.3842 10.2877 12.7926 9.99655C12.86 9.9452 18.9394 5.3722 32.6606 5.3722C46.3818 5.3722 52.4941 9.92916 52.5599 9.96285C52.9772 10.2796 53.4839 10.4486 54.0033 10.4442C54.3141 10.4491 54.6227 10.3911 54.9115 10.2736C55.2003 10.156 55.4636 9.98122 55.6862 9.75923C55.9089 9.53725 56.0865 9.27243 56.209 8.97997C56.3314 8.68752 56.3962 8.37319 56.3997 8.05503C56.3998 7.57846 56.2608 7.11271 56.0005 6.71759C55.7403 6.32247 55.3706 6.016 54.939 5.83753Z" fill="#003268"/>
</svg>
