<svg width="66" height="68" viewBox="0 0 66 68" fill="none" xmlns="http://www.w3.org/2000/svg">
<path d="M11.4464 28.3562C11.1342 28.3591 10.8268 28.2768 10.5555 28.1178C10.3564 28.0025 10.1817 27.8475 10.0415 27.6618C9.90129 27.4761 9.79844 27.2635 9.73897 27.0364C9.67949 26.8092 9.66458 26.5721 9.6951 26.339C9.72562 26.1059 9.80097 25.8813 9.91673 25.6786C12.1476 21.8421 18.9353 12.8877 33.7463 12.8877C40.1648 12.8877 45.7942 14.6247 50.4701 18.0486C54.3186 20.8586 56.4755 24.0393 57.503 25.5713C57.6333 25.7644 57.7248 25.9824 57.7722 26.2125C57.8195 26.4426 57.8216 26.6801 57.7785 26.911C57.7354 27.142 57.6478 27.3617 57.521 27.5573C57.3942 27.7529 57.2307 27.9203 57.0402 28.0498C56.6507 28.3151 56.1763 28.4136 55.7175 28.3246C55.2587 28.2356 54.8516 27.966 54.5825 27.5729C52.723 24.8178 47.0531 16.4344 33.7463 16.4344C20.7577 16.4344 14.8854 24.149 12.9727 27.4573C12.819 27.7336 12.5965 27.9625 12.3282 28.1206C12.0599 28.2786 11.7555 28.3599 11.4464 28.3562Z" fill="#002B59"/>
<path d="M41.2074 63.4059C41.0597 63.4077 40.9124 63.3905 40.7688 63.3546C30.025 60.6126 26.0133 49.5468 25.8502 49.0867L25.8247 48.9853C25.7368 48.6658 23.5811 41.0776 26.8904 36.6332C28.4074 34.6065 30.7147 33.5669 33.7614 33.5669C36.594 33.5669 38.6374 34.4741 40.0422 36.3518C41.1993 37.885 41.6621 39.7757 42.1099 41.5974C43.0507 45.3909 43.7299 47.383 47.6398 47.5881C49.3569 47.6775 50.4851 46.6427 51.125 45.7617C52.8549 43.3594 53.1557 39.4431 51.8517 35.9858C50.1762 31.5235 44.2298 23.1103 33.7452 23.1103C29.2695 23.1103 25.1571 24.5922 21.8593 27.3771C19.1297 29.684 16.967 32.941 15.9256 36.2886C13.9944 42.5213 16.5273 52.3186 16.5516 52.4081C16.6108 52.6361 16.625 52.874 16.5935 53.1078C16.562 53.3415 16.4853 53.5665 16.3681 53.7692C16.2509 53.972 16.0954 54.1485 15.9109 54.2884C15.7264 54.4283 15.5166 54.5288 15.2938 54.5838C14.8438 54.7071 14.3648 54.6439 13.9594 54.4076C13.5541 54.1714 13.2547 53.781 13.1254 53.3201C13.0097 52.873 10.3044 42.4236 12.5353 35.2204C14.9652 27.4152 22.4645 19.5469 33.7486 19.5469C38.9637 19.5469 43.8907 21.3733 48.0031 24.8223C51.1875 27.5047 53.7887 31.1074 55.1495 34.709C56.8793 39.3072 56.4153 44.4682 53.9704 47.8396C52.3411 50.0881 50.0211 51.2636 47.4512 51.136C40.7561 50.7903 39.5527 45.9751 38.6756 42.4629C37.7731 38.8602 37.1957 37.1232 33.7486 37.1232C31.8556 37.1232 30.5261 37.6596 29.6987 38.7707C28.5706 40.2908 28.4826 42.6668 28.6076 44.3907C28.6896 45.5917 28.8873 46.7814 29.1977 47.9422C29.4731 48.6575 33.059 57.718 41.6471 59.9104C41.8691 59.9646 42.0784 60.0637 42.2629 60.2019C42.4474 60.3402 42.6033 60.5148 42.7218 60.7157C42.8402 60.9166 42.9187 61.1397 42.9527 61.3721C42.9867 61.6045 42.9756 61.8415 42.9199 62.0695C42.8151 62.4542 42.591 62.7931 42.2818 63.0344C41.9726 63.2757 41.5953 63.4062 41.2074 63.4059V63.4059Z" fill="#002B59"/>
<path d="M27.4193 62.5881C27.1785 62.5886 26.9401 62.5391 26.7182 62.4426C26.4963 62.3462 26.2956 62.2047 26.128 62.0265C21.8281 57.3771 19.3959 52.178 18.4806 45.677V45.6425C17.9668 41.3387 18.719 35.2455 22.4044 31.0562C25.1248 27.9648 28.949 26.3936 33.751 26.3936C39.4301 26.3936 43.8931 29.1141 46.676 34.2488C48.6951 37.9791 49.0955 41.6963 49.1059 41.8489C49.1271 42.0842 49.103 42.3215 49.035 42.5472C48.9671 42.7729 48.8566 42.9825 48.7099 43.1641C48.5632 43.3457 48.3831 43.4957 48.18 43.6056C47.977 43.7154 47.7549 43.7829 47.5265 43.8041C47.0656 43.8556 46.6035 43.7184 46.2401 43.4219C45.8766 43.1255 45.6408 42.6937 45.5837 42.2197C45.2789 39.9893 44.5783 37.8358 43.5171 35.8666C41.3602 31.9455 38.0786 29.9522 33.7383 29.9522C29.9893 29.9522 27.056 31.1146 25.038 33.4095C22.129 36.7178 21.5666 41.8144 21.9658 45.1858C22.7677 50.9345 24.9118 55.5077 28.6979 59.5945C28.8559 59.7639 28.9793 59.9642 29.0606 60.1837C29.142 60.4032 29.1797 60.6373 29.1715 60.872C29.1633 61.1068 29.1094 61.3375 29.0129 61.5504C28.9164 61.7632 28.7794 61.954 28.61 62.1112C28.2837 62.4159 27.8597 62.5857 27.4193 62.5881V62.5881Z" fill="#002B59"/>
<path d="M47.2259 57.4667C43.4653 57.4667 40.2682 56.3938 37.7098 54.261C32.5699 49.9942 31.9937 43.045 31.9682 42.7517C31.932 42.2703 32.0829 41.7938 32.3877 41.427C32.6925 41.0602 33.1262 40.8332 33.5934 40.7959C34.0606 40.7586 34.5231 40.9141 34.8791 41.2281C35.2351 41.5421 35.4554 41.9889 35.4916 42.4703C35.5044 42.5729 36.0181 48.2572 39.9801 51.5309C42.3244 53.4598 45.4579 54.2252 49.3191 53.7781C49.7806 53.7204 50.2455 53.8534 50.6122 54.1478C50.9788 54.4422 51.2174 54.8743 51.2758 55.3494C51.3011 55.5841 51.2807 55.8217 51.216 56.0482C51.1512 56.2748 51.0432 56.4858 50.8985 56.6689C50.7537 56.852 50.575 57.0035 50.3728 57.1147C50.1706 57.2259 49.9489 57.2945 49.7207 57.3165C48.8926 57.4161 48.0596 57.4662 47.2259 57.4667V57.4667ZM50.1974 10.0908C48.7302 9.10724 43.5278 6.18164 33.7456 6.18164C23.4773 6.18164 18.2622 9.41363 17.1086 10.235C17.0324 10.2832 16.9611 10.3391 16.8957 10.4019C16.8888 10.4088 16.8798 10.413 16.8702 10.4139C16.686 10.5796 16.5382 10.7839 16.4366 11.0131C16.3351 11.2423 16.2821 11.4912 16.2812 11.7431C16.2844 11.9793 16.3328 12.2126 16.4236 12.4295C16.5144 12.6464 16.6458 12.8427 16.8104 13.0071C16.975 13.1716 17.1694 13.301 17.3826 13.3879C17.5958 13.4748 17.8236 13.5175 18.0528 13.5135C18.4202 13.5133 18.7788 13.3972 19.0803 13.1809C19.1301 13.1428 23.6185 9.74506 33.749 9.74506C43.8796 9.74506 48.3923 13.1308 48.4409 13.1559C48.749 13.3913 49.1231 13.5168 49.5066 13.5135C49.736 13.5172 49.9639 13.4741 50.1771 13.3867C50.3903 13.2994 50.5847 13.1695 50.7491 13.0046C50.9135 12.8397 51.0446 12.6429 51.135 12.4256C51.2254 12.2083 51.2733 11.9748 51.2758 11.7384C51.2759 11.3843 51.1733 11.0382 50.9811 10.7447C50.789 10.4511 50.5161 10.2234 50.1974 10.0908V10.0908Z" fill="#002B59"/>
</svg>
