<svg width="66" height="54" viewBox="0 0 66 54" fill="none" xmlns="http://www.w3.org/2000/svg">
<path d="M52.3022 32.3388C51.7713 32.3413 51.2516 32.1868 50.8089 31.8949C50.3662 31.6029 50.0205 31.1867 49.8156 30.6989C49.6106 30.2112 49.5557 29.6738 49.6577 29.1549C49.7598 28.636 50.0142 28.1589 50.3887 27.7841C50.7632 27.4094 51.241 27.1537 51.7615 27.0496C52.2821 26.9456 52.8219 26.9977 53.3127 27.1995C53.8035 27.4012 54.223 27.7435 54.5183 28.183C54.8135 28.6224 54.9711 29.1393 54.9711 29.6681C54.9736 30.0184 54.9064 30.3658 54.7734 30.6901C54.6403 31.0145 54.444 31.3093 54.1958 31.5577C53.9477 31.806 53.6525 32.0029 53.3275 32.137C53.0025 32.271 52.654 32.3396 52.3022 32.3388ZM39.2552 32.3388C38.7243 32.3413 38.2045 32.1868 37.7619 31.8949C37.3192 31.6029 36.9735 31.1867 36.7686 30.6989C36.5636 30.2112 36.5087 29.6738 36.6107 29.1549C36.7128 28.636 36.9671 28.1589 37.3417 27.7841C37.7162 27.4094 38.194 27.1537 38.7145 27.0496C39.2351 26.9456 39.7749 26.9977 40.2657 27.1995C40.7564 27.4012 41.176 27.7435 41.4713 28.183C41.7665 28.6224 41.9241 29.1393 41.9241 29.6681C41.9268 30.0185 41.8597 30.3659 41.7267 30.6903C41.5937 31.0147 41.3974 31.3097 41.1492 31.558C40.901 31.8064 40.6058 32.0033 40.2807 32.1373C39.9556 32.2713 39.607 32.3398 39.2552 32.3388ZM58.6769 47.455C62.8284 44.4905 65.4973 40.0457 65.4973 35.0069C65.4973 25.9672 56.75 18.5566 45.7793 18.5566C34.8087 18.5566 26.0601 25.9672 26.0601 35.0069C26.0601 44.0467 34.8074 51.456 45.7793 51.456C48.0026 51.456 50.2271 51.1596 52.1541 50.5657C52.472 50.4564 52.5985 50.4169 52.7466 50.4169C53.1126 50.4256 53.4702 50.5281 53.7848 50.7145L58.0908 53.2339C58.2301 53.3066 58.3801 53.3569 58.5352 53.3827C58.6894 53.3722 58.8346 53.3064 58.9438 53.1974C59.053 53.0884 59.1188 52.9437 59.129 52.79C59.1191 52.6227 59.086 52.4575 59.0307 52.2991C58.9783 52.1135 58.3922 50.2643 58.0908 49.0854C58.0632 48.9399 58.0491 48.7922 58.0487 48.6441C58.0504 48.4092 58.1094 48.1782 58.2206 47.9711C58.3319 47.764 58.492 47.5869 58.6872 47.455" fill="#003268"/>
<path d="M31.5458 17.0724C30.717 17.0724 29.9222 16.7446 29.3362 16.1609C28.7502 15.5773 28.421 14.7858 28.421 13.9604C28.421 13.1351 28.7502 12.3435 29.3362 11.7599C29.9222 11.1763 30.717 10.8484 31.5458 10.8484C33.1765 10.8484 34.6591 12.33 34.6591 13.9604C34.8072 15.5908 33.3246 17.0724 31.5458 17.0724ZM15.8311 17.0724C15.2129 17.0747 14.6078 16.8942 14.0925 16.5539C13.5772 16.2135 13.1749 15.7286 12.9365 15.1605C12.6981 14.5923 12.6343 13.9665 12.7531 13.3622C12.872 12.7579 13.1682 12.2023 13.6042 11.7658C14.0403 11.3292 14.5965 11.0313 15.2027 10.9097C15.8088 10.7881 16.4375 10.8483 17.0093 11.0828C17.581 11.3172 18.07 11.7153 18.4145 12.2266C18.759 12.7379 18.9434 13.3396 18.9444 13.9553C18.9411 14.7777 18.6124 15.5656 18.0296 16.1482C17.4468 16.7307 16.6569 17.061 15.8311 17.0673V17.0724ZM23.6885 0.474609C10.6415 0.474609 0.115234 9.218 0.115234 20.187C0.115234 26.1147 3.22853 31.4497 8.26881 35.0069C8.71448 35.3007 8.79876 35.9569 8.79876 36.2112C8.80945 36.4053 8.78079 36.5995 8.71448 36.7823C8.26881 38.2639 7.70055 40.6624 7.67629 40.7896C7.65203 40.9168 7.52816 41.2347 7.52816 41.3822C7.52184 41.4809 7.53664 41.5798 7.57157 41.6724C7.6065 41.7649 7.66078 41.849 7.7308 41.9191C7.80082 41.9892 7.88499 42.0437 7.97774 42.079C8.07049 42.1142 8.1697 42.1295 8.26881 42.1237C8.42786 42.1137 8.58151 42.0624 8.71448 41.9749L13.9067 39.0091C14.3524 38.7128 14.6487 38.7128 15.093 38.7128C15.3473 38.7165 15.5988 38.7665 15.835 38.8603C18.2063 39.6018 20.8753 39.8981 23.5442 39.8981H24.8786C24.3925 38.313 24.1425 36.6655 24.1367 35.0082C24.1367 25.0782 33.7741 17.0762 45.6348 17.0762H46.9693C45.3334 7.73639 35.5491 0.474609 23.6885 0.474609Z" fill="#003268"/>
</svg>
