<svg width="59" height="61" viewBox="0 0 59 61" fill="none" xmlns="http://www.w3.org/2000/svg">
<path d="M23.3333 46V25.875H32.0833V44.8787C31.9083 45.2237 31.7917 45.6262 31.6458 46H23.3333ZM48.125 34.5C48.6208 34.5 49.0875 34.5 49.5833 34.5862V25.875H40.8333V36.0812C43.05 35.075 45.5292 34.5 48.125 34.5ZM14.5833 46V25.875H5.83333V46H14.5833ZM55.4167 14.375L27.7083 0L0 14.375V20.125H55.4167V14.375ZM0 51.75V60.375H32.9875C31.5 57.845 30.625 54.8837 30.625 51.75H0ZM54.95 43.125L44.4792 53.4462L39.8417 48.875L36.4583 52.21L44.4792 60.835L58.3333 47.1787L54.95 43.125Z" fill="#002B59"/>
</svg>
