<svg width="66" height="81" viewBox="0 0 66 81" fill="none" xmlns="http://www.w3.org/2000/svg">
<path d="M64.4153 35.3357C68.0516 51.4294 31.3325 80.0021 31.3325 80.0021C31.3325 80.0021 -1.03919 51.4294 0.519369 35.3357C0.519369 19.0735 9.60979 5.33594 31.3328 5.33594C53.0559 5.33594 64.4153 19.0735 64.4153 35.3357Z" fill="#FF9F43"/>
<circle cx="32.6664" cy="32.6664" r="30.9164" fill="white" stroke="#FF9F43" stroke-width="3.5"/>
<path d="M35.5688 22.2907C34.2712 22.262 33.175 21.2006 31.6656 21.9938L32.3372 22.3285C32.6724 22.4761 32.9964 22.6471 33.3068 22.8403C33.4293 22.9273 33.4397 23.1678 33.5487 23.4718C33.1718 23.3695 32.9694 23.3193 32.7711 23.2559C31.9013 22.9732 30.9633 22.9671 30.0897 23.2385C29.4978 23.3597 28.8869 23.3597 28.2949 23.2385C27.962 23.1677 27.6534 23.0134 27.3988 22.7905C27.1442 22.5676 26.9522 22.2837 26.8416 21.9662C26.5839 21.4281 26.1735 20.9751 25.6602 20.6622C25.4798 20.5496 25.3249 20.4015 25.2052 20.2272C25.0855 20.0529 25.0036 19.8561 24.9646 19.6491C24.9257 19.4422 24.9304 19.2295 24.9787 19.0244C25.0269 18.8194 25.1176 18.6263 25.245 18.4574C25.6041 17.9528 25.8481 17.2916 26.3215 16.9691C27.1135 16.5098 27.9502 16.1298 28.8191 15.835C29.1451 15.7043 29.4884 15.6202 29.8385 15.5853C30.67 15.564 31.4869 15.8037 32.1711 16.2701C33.2961 16.9932 34.5321 17.5324 35.8314 17.8668C36.0069 17.8759 36.1822 17.8458 36.3443 17.7788C36.5654 17.7112 36.7771 17.6181 36.992 17.5362L37.127 17.7133C36.9889 17.8371 36.8633 18.048 36.7117 18.0674C35.7568 18.2745 34.7608 18.1939 33.8528 17.8361C32.966 17.3896 32.0374 17.0287 31.0801 16.7583C30.6846 16.7263 30.2875 16.7969 29.9282 16.963C29.569 17.1291 29.26 17.3849 29.0319 17.7051C28.5957 18.1899 28.188 18.6992 27.8111 19.2302C27.7597 19.2909 27.7226 19.3621 27.7027 19.4387C27.6829 19.5154 27.6807 19.5954 27.6963 19.673C27.7119 19.7505 27.745 19.8237 27.7931 19.887C27.8412 19.9503 27.903 20.0022 27.9741 20.0388C28.181 20.1232 28.4109 20.1358 28.626 20.0746C29.1389 19.9969 29.6423 19.8372 30.1572 19.7932C31.3346 19.6578 32.5225 19.9389 33.5092 20.5864C34.0044 20.9191 34.5317 21.2006 35.0435 21.5076C35.3915 21.6845 35.7748 21.7834 36.166 21.7972C36.5572 21.811 36.9467 21.7394 37.3066 21.5875C38.1465 21.2806 39.0229 21.0814 39.9143 20.9948C40.707 21.0625 41.4852 21.245 42.224 21.5363C42.6745 21.6632 43.0939 21.9058 43.5466 22.0102C43.8629 22.0693 44.1889 22.0528 44.4974 21.9621C45.086 21.7973 45.657 21.569 46.2311 21.3572C46.3551 21.3215 46.4642 21.2476 46.5425 21.1463C46.8819 20.5322 47.1851 19.8986 47.5276 19.2845C47.6928 18.956 47.905 18.6526 48.1578 18.3837C48.7272 17.7496 49.376 17.1893 50.0886 16.7163C50.6199 16.3303 51.2773 16.1519 51.934 16.2156C52.5908 16.2793 53.2003 16.5806 53.6451 17.0613C53.8568 17.2799 53.9906 17.5605 54.0261 17.8607C53.9898 18.2148 53.9628 18.5772 53.9171 18.9405C53.8237 19.6621 53.1852 19.9457 52.7077 20.3418C51.8682 20.9204 51.0755 21.5624 50.3367 22.262C49.9249 22.7167 49.6396 23.2687 49.5084 23.8644C49.3772 24.4601 49.4048 25.0791 49.5882 25.6613C50.0637 27.3283 50.4824 29.0107 50.8443 30.7084C51.0246 31.6147 51.1129 32.5363 51.108 33.4598C51.0639 34.1555 50.9709 34.8474 50.8298 35.5304C50.7654 35.9552 50.699 36.3831 50.6004 36.8007C50.1809 38.4468 49.4038 39.9834 48.3228 41.3044C47.3365 42.4759 46.2747 43.5836 45.1442 44.6207C44.9421 44.7698 44.7779 44.9632 44.6646 45.1856C44.5512 45.408 44.4919 45.6533 44.4912 45.9022C44.4375 46.5812 44.3302 47.255 44.1704 47.9176C44.0529 48.4682 44.0031 49.0308 44.022 49.5932C43.966 50.1782 43.7129 50.7279 43.3031 51.1546C42.8933 51.5812 42.3504 51.8603 41.761 51.9474C38.6904 51.8993 35.6176 51.931 32.5459 51.8921C31.8439 51.8497 31.1461 51.7556 30.4583 51.6106C30.1646 51.5562 29.8679 51.5196 29.5697 51.5011C29.006 51.2749 28.4413 51.0497 27.8776 50.8194C27.7701 50.7811 27.669 50.7273 27.5776 50.6597C26.7781 50.0824 25.8018 49.7934 24.8121 49.8409C23.2217 49.7877 21.6262 49.8624 20.0369 49.8317C19.2101 49.8401 18.3849 49.7577 17.5766 49.586C16.486 49.3331 15.4255 48.9677 14.4125 48.4959C13.7678 48.1827 13.6017 47.3843 13.5156 46.6985C13.4325 45.5431 13.1282 44.4136 12.6186 43.3699C12.1307 42.5678 11.5876 41.7997 10.993 41.071C10.2729 40.132 9.79672 39.0335 9.60609 37.8713C9.57599 37.6799 9.47114 37.4998 9.4265 37.3073C9.3564 37.0826 9.33483 36.8458 9.36318 36.6123C9.71942 35.1203 10.5176 33.7664 11.6563 32.7228C12.3572 31.9818 13.1073 31.2877 13.9017 30.645C14.817 30.1105 15.7777 29.6556 16.7731 29.2857C18.3634 28.5907 20.0535 28.9213 21.703 28.8763C22.2371 28.9151 22.7635 29.0238 23.2684 29.1997C24.3574 29.4648 25.4599 29.6931 26.526 30.0298C27.4738 30.3307 28.3852 30.7463 29.3039 31.1301C30.2226 31.514 31.0811 31.9101 31.9812 32.2684C32.1664 32.288 32.3522 32.2367 32.5002 32.1251C32.7606 31.9819 32.9947 31.7964 33.1926 31.5764C33.6478 31.1478 34.2295 30.8732 34.8536 30.7924C35.1515 30.7249 35.4629 30.7434 35.7505 30.8456C36.2803 31.0309 36.8 31.2431 37.3076 31.4812C38.5202 32.0773 39.5674 32.9556 40.3586 34.0401C41.0769 34.9439 41.6863 35.9266 42.4005 36.9532L42.8095 36.6257C42.6912 36.4486 42.6299 36.3186 42.5417 36.206C42.3062 35.8458 42.1631 35.4345 42.1246 35.0077C42.0861 34.5808 42.1533 34.1511 42.3206 33.7556C42.5804 33.0706 43.0741 32.4962 43.7168 32.1312C44.1281 31.7812 44.4376 31.3298 44.6137 30.8231C44.8812 30.3384 45.036 29.8012 45.0671 29.2503C45.0982 28.6994 45.0046 28.1486 44.7933 27.6377C44.6968 27.4607 44.4071 27.2038 44.294 27.2416C44.1779 27.2874 44.0728 27.3566 43.9854 27.4447C43.898 27.5328 43.8302 27.638 43.7864 27.7534C43.6668 28.1451 43.6128 28.5534 43.6265 28.9622C43.6441 29.4648 43.4272 29.8722 42.9735 29.7954C42.6621 29.7422 42.3403 29.3021 42.1783 28.9622C42.0455 28.6828 42.1783 28.2918 42.1285 27.9612C42.0564 27.3963 41.7606 26.8825 41.3057 26.5318C40.8509 26.1811 40.2738 26.0219 39.7004 26.0891C38.7323 26.1383 37.7664 25.9561 36.8851 25.5579C36.3551 25.3626 35.9161 24.9823 35.6515 24.4891C35.3869 23.996 35.315 23.4242 35.4494 22.8823C35.5077 22.6891 35.5477 22.4911 35.5688 22.2907ZM25.955 46.8214L26.0443 46.6269C25.9445 46.5124 25.8284 46.4128 25.6997 46.3311C24.594 45.7577 23.6393 44.938 22.9113 43.937C21.7964 42.5777 21.5712 40.8663 21.0324 39.2828C20.9047 38.8969 20.721 38.5326 20.5922 38.1467C20.4659 37.5719 20.2948 37.0076 20.0805 36.4588C19.4701 35.2623 18.7901 34.1046 18.1081 32.9459C17.6347 32.1445 17.099 31.3748 16.6039 30.5836C16.336 30.1588 15.9239 30.1322 15.654 30.557C15.4744 30.8313 15.3852 31.1547 15.1962 31.4167C14.6938 32.1251 14.1426 32.7883 13.6391 33.4925C12.2522 35.4373 13.2083 36.5878 14.4986 37.1774C15.8751 37.8007 17.2942 38.3309 18.6749 38.9471C19.1781 39.1659 19.6236 39.4958 19.9771 39.9112C20.3306 40.3267 20.5826 40.8166 20.7137 41.3433C20.7952 41.8349 20.7532 42.3388 20.5914 42.8108C20.4296 43.2828 20.1529 43.7085 19.7856 44.0506C19.306 44.6361 19.4358 45.1315 20.1801 45.3515C20.9244 45.5716 21.7217 45.7057 22.4899 45.9032C23.339 46.1172 24.184 46.3475 25.029 46.5737C25.3394 46.6443 25.6488 46.7262 25.955 46.8214ZM32.1483 33.0954C31.9733 32.9191 31.7715 32.7706 31.5503 32.6553C30.5797 32.2817 29.6081 31.8978 28.6105 31.6081C27.4174 31.2444 26.2043 30.9477 24.9771 30.7197C23.9807 30.5729 22.9741 30.5044 21.9667 30.515C21.5132 30.5323 21.0675 30.6366 20.6545 30.8221C20.1355 31.0339 20.0888 31.3338 20.4054 31.7955C21.2163 32.8159 22.3238 33.568 23.5799 33.9511C24.4321 34.2817 25.355 34.4342 26.2436 34.6819C26.7627 34.8273 27.2734 35.0115 27.7945 35.1609C28.6381 35.4052 29.4845 35.6413 30.3337 35.8692C30.9835 36.0463 31.6386 36.2039 32.3549 36.381C31.8689 35.3466 31.7948 34.1699 32.1472 33.0841L32.1483 33.0954ZM26.253 41.679C26.2748 41.9021 26.2405 42.0679 26.309 42.1529C26.581 42.6012 26.9326 42.9975 27.3471 43.3228C28.4094 43.9292 29.5136 44.4613 30.6514 44.9155C31.3636 45.1475 32.0957 45.3157 32.8386 45.4181C33.6982 45.5951 34.5619 45.7477 35.4214 45.9176C35.5444 45.949 35.6645 45.9904 35.7806 46.0414C35.8875 46.0814 36.0025 46.0962 36.1163 46.0847C36.23 46.0732 36.3395 46.0357 36.4361 45.9752C36.5326 45.9147 36.6135 45.8328 36.6723 45.7361C36.7312 45.6394 36.7663 45.5305 36.7751 45.4181C36.9765 43.9319 35.4453 42.1335 34.3875 41.7332C33.0319 41.1956 31.5641 40.9908 30.1105 41.1365C28.8544 41.2696 27.5983 41.4784 26.254 41.6688L26.253 41.679Z" fill="#003268"/>
</svg>
