<svg width="51" height="61" viewBox="0 0 51 61" fill="none" xmlns="http://www.w3.org/2000/svg">
<path d="M1.95667 23.9133C1.62686 23.9163 1.30213 23.8303 1.01547 23.664C0.805203 23.5435 0.620622 23.3815 0.472522 23.1873C0.324423 22.9932 0.215781 22.7709 0.152952 22.5335C0.0901229 22.296 0.0743691 22.0482 0.106612 21.8045C0.138856 21.5607 0.218448 21.326 0.340733 21.114C2.69741 17.1034 9.86767 7.74219 25.5137 7.74219C32.294 7.74219 38.2407 9.55809 43.1802 13.1375C47.2457 16.0751 49.5241 19.4003 50.6096 21.0019C50.7472 21.2037 50.8439 21.4316 50.8939 21.6722C50.9439 21.9127 50.9461 22.161 50.9006 22.4025C50.855 22.6439 50.7625 22.8736 50.6286 23.0781C50.4947 23.2825 50.3219 23.4576 50.1206 23.593C49.7092 23.8703 49.2081 23.9733 48.7234 23.8803C48.2388 23.7872 47.8087 23.5053 47.5244 23.0944C45.5601 20.2142 39.5706 11.45 25.5137 11.45C11.7929 11.45 5.58947 19.515 3.56894 22.9736C3.40659 23.2624 3.17156 23.5017 2.88812 23.6669C2.60469 23.8322 2.28313 23.9172 1.95667 23.9133Z" fill="#003268"/>
<path d="M33.3962 60.5582C33.2402 60.5601 33.0846 60.5421 32.9329 60.5046C21.5835 57.638 17.3456 46.0696 17.1733 45.5885L17.1464 45.4826C17.0535 45.1486 14.7763 37.2157 18.2722 32.5694C19.8747 30.4506 22.312 29.3638 25.5304 29.3638C28.5227 29.3638 30.6814 30.3123 32.1653 32.2753C33.3877 33.878 33.8766 35.8547 34.3496 37.7591C35.3434 41.7249 36.0609 43.8075 40.1912 44.0219C42.0052 44.1154 43.197 43.0336 43.8729 42.1125C45.7003 39.6012 46.0181 35.507 44.6405 31.8926C42.8706 27.2276 36.589 18.4323 25.5133 18.4323C20.7853 18.4323 16.4411 19.9815 12.9574 22.8929C10.0739 25.3046 7.78936 28.7095 6.68925 32.2092C4.64916 38.725 7.32487 48.9673 7.35053 49.0608C7.41301 49.2992 7.42804 49.5479 7.39474 49.7923C7.36145 50.0367 7.2805 50.2718 7.15666 50.4838C7.03283 50.6958 6.86862 50.8804 6.67372 51.0266C6.47882 51.1729 6.25717 51.2778 6.02185 51.3354C5.54643 51.4643 5.04041 51.3982 4.61223 51.1512C4.18404 50.9043 3.86777 50.4961 3.73118 50.0143C3.60894 49.5469 0.751105 38.6228 3.10778 31.0925C5.6747 22.9328 13.5967 14.707 25.517 14.707C31.0261 14.707 36.2308 16.6164 40.575 20.222C43.9389 23.0263 46.6868 26.7927 48.1242 30.5578C49.9516 35.3649 49.4615 40.7603 46.8787 44.2849C45.1576 46.6355 42.7068 47.8643 39.992 47.731C32.9195 47.3695 31.6483 42.3356 30.7217 38.6639C29.7683 34.8975 29.1584 33.0816 25.517 33.0816C23.5172 33.0816 22.1128 33.6425 21.2388 34.8041C20.047 36.3931 19.9541 38.8771 20.0861 40.6793C20.1728 41.9349 20.3816 43.1786 20.7095 44.3921C21.0004 45.1399 24.7885 54.612 33.8607 56.904C34.0952 56.9606 34.3163 57.0642 34.5112 57.2087C34.7061 57.3532 34.8709 57.5358 34.996 57.7458C35.1211 57.9558 35.204 58.189 35.2399 58.432C35.2759 58.675 35.2641 58.9228 35.2053 59.1611C35.0946 59.5633 34.8578 59.9176 34.5312 60.1699C34.2046 60.4221 33.806 60.5585 33.3962 60.5582Z" fill="#003268"/>
<path d="M18.8288 59.6998C18.5744 59.7004 18.3226 59.6487 18.0882 59.5478C17.8538 59.447 17.6418 59.299 17.4647 59.1128C12.9225 54.2521 10.3531 48.8169 9.38622 42.0207V41.9845C8.8435 37.4853 9.63803 31.1153 13.5312 26.7357C16.4049 23.504 20.4448 21.8613 25.5175 21.8613C31.5167 21.8613 36.2313 24.7054 39.1711 30.0734C41.304 33.9731 41.727 37.8592 41.738 38.0187C41.7603 38.2647 41.7349 38.5127 41.6631 38.7487C41.5913 38.9846 41.4746 39.2038 41.3196 39.3936C41.1646 39.5835 40.9744 39.7403 40.7599 39.8551C40.5454 39.9699 40.3108 40.0405 40.0695 40.0627C39.5826 40.1166 39.0945 39.9731 38.7105 39.6632C38.3266 39.3533 38.0775 38.9018 38.0172 38.4063C37.6952 36.0746 36.9552 33.8233 35.8341 31.7646C33.5556 27.6655 30.089 25.5816 25.504 25.5816C21.5436 25.5816 18.445 26.7968 16.3132 29.196C13.2403 32.6545 12.6462 37.9826 13.0679 41.5072C13.915 47.517 16.18 52.2979 20.1795 56.5703C20.3464 56.7474 20.4767 56.9568 20.5627 57.1863C20.6486 57.4157 20.6885 57.6604 20.6798 57.9059C20.6711 58.1513 20.6141 58.3925 20.5122 58.615C20.4103 58.8376 20.2656 59.0369 20.0866 59.2013C19.7419 59.5199 19.294 59.6974 18.8288 59.6998Z" fill="#003268"/>
<path d="M39.7541 54.3469C35.7814 54.3469 32.4041 53.2253 29.7015 50.9956C24.2719 46.535 23.6631 39.2701 23.6362 38.9635C23.598 38.4603 23.7574 37.9621 24.0793 37.5787C24.4013 37.1952 24.8595 36.9579 25.353 36.9189C25.8466 36.8799 26.3352 37.0424 26.7112 37.3707C27.0873 37.699 27.32 38.1661 27.3583 38.6694C27.3717 38.7766 27.9144 44.7191 32.0997 48.1415C34.5762 50.158 37.8863 50.9582 41.9653 50.4908C42.4528 50.4305 42.9439 50.5695 43.3312 50.8773C43.7185 51.1851 43.9706 51.6367 44.0323 52.1335C44.059 52.3789 44.0375 52.6272 43.969 52.864C43.9006 53.1009 43.7866 53.3214 43.6336 53.5128C43.4807 53.7043 43.2919 53.8627 43.0783 53.979C42.8647 54.0952 42.6305 54.1669 42.3894 54.1899C41.5147 54.294 40.6347 54.3464 39.7541 54.3469ZM42.893 4.81913C41.3431 3.79091 35.8475 0.732422 25.5138 0.732422C14.6667 0.732422 9.15759 4.11122 7.93892 4.96994C7.85843 5.02031 7.78308 5.07876 7.71401 5.14442C7.70672 5.15161 7.69722 5.15601 7.68711 5.15688C7.49251 5.33013 7.33636 5.54368 7.22907 5.78331C7.12179 6.02294 7.06583 6.28313 7.06494 6.54654C7.06828 6.79346 7.11938 7.03728 7.21531 7.26403C7.31123 7.49078 7.45009 7.696 7.62394 7.86793C7.79779 8.03987 8.0032 8.17513 8.22841 8.26597C8.45361 8.35682 8.69419 8.40146 8.93635 8.39734C9.32448 8.39707 9.70325 8.27573 10.0218 8.04961C10.0743 8.00973 14.8158 4.4577 25.5174 4.4577C36.219 4.4577 40.9862 7.99727 41.0375 8.02344C41.363 8.2695 41.7582 8.40076 42.1633 8.39734C42.4057 8.40113 42.6464 8.35608 42.8716 8.26477C43.0968 8.17347 43.3022 8.03771 43.4758 7.86528C43.6495 7.69285 43.788 7.48716 43.8835 7.25999C43.979 7.03284 44.0295 6.78868 44.0323 6.54155C44.0324 6.17138 43.924 5.80962 43.721 5.50271C43.518 5.19581 43.2297 4.95776 42.893 4.81913Z" fill="#003268"/>
</svg>
