<svg width="70" height="73" viewBox="0 0 70 73" fill="none" xmlns="http://www.w3.org/2000/svg">
<path d="M27.8019 55.0977V31.224H38.1996V53.7676C37.9916 54.1768 37.853 54.6543 37.6797 55.0977H27.8019ZM57.262 41.4556C57.8512 41.4556 58.4058 41.4556 58.995 41.5579V31.224H48.5973V43.3314C51.2314 42.1377 54.1774 41.4556 57.262 41.4556ZM17.4042 55.0977V31.224H7.00651V55.0977H17.4042ZM65.9268 17.5819L33.0008 0.529297L0.074707 17.5819V24.403H65.9268V17.5819ZM0.074707 61.9187V72.1503H39.274C37.5064 69.149 36.4666 65.6362 36.4666 61.9187H0.074707ZM65.3722 51.6871L52.9297 63.9309L47.4189 58.5082L43.3984 62.4644L52.9297 72.696L69.3927 56.496L65.3722 51.6871Z" fill="#003268"/>
</svg>
