<svg width="83" height="68" viewBox="0 0 83 68" fill="none" xmlns="http://www.w3.org/2000/svg">
<path d="M66.3282 40.8535C65.6611 40.8566 65.0081 40.6617 64.4518 40.2934C63.8956 39.9251 63.4612 39.4 63.2037 38.7845C62.9462 38.1691 62.8772 37.4911 63.0054 36.8364C63.1336 36.1817 63.4533 35.5798 63.9239 35.107C64.3945 34.6341 64.9948 34.3116 65.6489 34.1803C66.303 34.049 66.9813 34.1147 67.5979 34.3693C68.2146 34.6239 68.7418 35.0557 69.1128 35.6102C69.4837 36.1647 69.6818 36.8168 69.6818 37.4839C69.6849 37.9259 69.6005 38.3642 69.4333 38.7734C69.2661 39.1826 69.0194 39.5546 68.7076 39.868C68.3958 40.1813 68.025 40.4297 67.6166 40.5988C67.2082 40.768 66.7703 40.8545 66.3282 40.8535ZM49.9344 40.8535C49.2673 40.8566 48.6143 40.6617 48.058 40.2934C47.5018 39.9251 47.0674 39.4 46.8099 38.7845C46.5524 38.1691 46.4834 37.4911 46.6116 36.8364C46.7398 36.1817 47.0594 35.5798 47.53 35.107C48.0006 34.6341 48.601 34.3116 49.2551 34.1803C49.9092 34.049 50.5875 34.1147 51.2041 34.3693C51.8208 34.6239 52.348 35.0557 52.7189 35.6102C53.0899 36.1647 53.288 36.8168 53.288 37.4839C53.2914 37.926 53.207 38.3644 53.0399 38.7737C52.8728 39.183 52.6262 39.5551 52.3143 39.8684C52.0024 40.1818 51.6315 40.4302 51.223 40.5993C50.8145 40.7684 50.3765 40.8548 49.9344 40.8535ZM74.3382 59.9253C79.5546 56.1851 82.9082 50.5771 82.9082 44.2198C82.9082 32.8146 71.9169 23.4648 58.1321 23.4648C44.3473 23.4648 33.3545 32.8146 33.3545 44.2198C33.3545 55.6251 44.3457 64.9732 58.1321 64.9732C60.9257 64.9732 63.7208 64.5994 66.1421 63.85C66.5416 63.712 66.7005 63.6623 66.8866 63.6623C67.3465 63.6732 67.7958 63.8025 68.1911 64.0378L73.6017 67.2164C73.7767 67.3082 73.9652 67.3716 74.1601 67.4041C74.3539 67.391 74.5364 67.3079 74.6736 67.1704C74.8108 67.0329 74.8935 66.8503 74.9062 66.6564C74.8938 66.4452 74.8523 66.2368 74.7827 66.0371C74.7169 65.8028 73.9804 63.4698 73.6017 61.9823C73.567 61.7988 73.5493 61.6124 73.5488 61.4255C73.5509 61.1292 73.6251 60.8378 73.7649 60.5765C73.9046 60.3151 74.1058 60.0917 74.351 59.9253" fill="#003268"/>
<path d="M40.2475 21.5954C39.2061 21.5954 38.2074 21.1818 37.4711 20.4454C36.7348 19.7091 36.3211 18.7104 36.3211 17.6691C36.3211 16.6277 36.7348 15.629 37.4711 14.8927C38.2074 14.1564 39.2061 13.7427 40.2475 13.7427C42.2965 13.7427 44.1594 15.612 44.1594 17.6691C44.3455 19.7261 42.4826 21.5954 40.2475 21.5954ZM20.5017 21.5954C19.7248 21.5983 18.9646 21.3706 18.3171 20.9412C17.6697 20.5118 17.1642 19.8999 16.8646 19.1831C16.565 18.4663 16.4848 17.6767 16.6342 16.9143C16.7835 16.1519 17.1557 15.4509 17.7036 14.9001C18.2515 14.3493 18.9504 13.9734 19.712 13.82C20.4736 13.6666 21.2636 13.7426 21.982 14.0384C22.7004 14.3341 23.315 14.8364 23.7478 15.4815C24.1806 16.1267 24.4124 16.8857 24.4136 17.6626C24.4095 18.7002 23.9964 19.6943 23.2641 20.4293C22.5318 21.1643 21.5393 21.581 20.5017 21.589V21.5954ZM30.3746 0.654297C13.9808 0.654297 0.754395 11.6857 0.754395 25.525C0.754395 33.0039 4.66631 39.735 10.9995 44.2229C11.5595 44.5936 11.6654 45.4215 11.6654 45.7425C11.6788 45.9873 11.6428 46.2323 11.5595 46.4629C10.9995 48.3322 10.2855 51.3584 10.255 51.5189C10.2245 51.6793 10.0689 52.0805 10.0689 52.2666C10.0609 52.3911 10.0795 52.5159 10.1234 52.6326C10.1673 52.7494 10.2355 52.8555 10.3235 52.944C10.4115 53.0324 10.5172 53.1011 10.6338 53.1456C10.7503 53.1901 10.875 53.2094 10.9995 53.2021C11.1994 53.1894 11.3924 53.1247 11.5595 53.0143L18.0837 49.2725C18.6436 48.8986 19.0159 48.8986 19.5743 48.8986C19.8938 48.9033 20.2097 48.9664 20.5065 49.0848C23.4862 50.0202 26.8397 50.3941 30.1933 50.3941H31.87C31.2593 48.3942 30.9452 46.3156 30.9378 44.2245C30.9378 31.6961 43.0474 21.6002 57.9506 21.6002H59.6273C57.5719 9.81634 45.2778 0.654297 30.3746 0.654297Z" fill="#003268"/>
</svg>
