<svg width="47" height="48" viewBox="0 0 47 48" fill="none" xmlns="http://www.w3.org/2000/svg">
<path fill-rule="evenodd" clip-rule="evenodd" d="M44.2483 0.472656H2.48589C1.11182 0.472656 0 1.59142 0 2.96851V44.8983C0 46.2778 1.11182 47.3941 2.48589 47.3941H44.2483C45.6224 47.3941 46.7342 46.2778 46.7342 44.8983V2.96851C46.7342 1.59142 45.6224 0.472656 44.2483 0.472656ZM37.2231 26.9006C38.4972 28.1486 39.8445 29.3235 40.988 30.7031C41.4933 31.3127 41.9712 31.9416 42.3354 32.648C42.8525 33.66 42.3839 34.7688 41.4833 34.83L35.8876 34.8275C34.4433 34.9467 33.2923 34.362 32.3216 33.3699C31.5497 32.58 30.8282 31.7345 30.083 30.9177C29.7798 30.5814 29.4591 30.2669 29.0781 30.0161C28.3137 29.5188 27.6506 29.6698 27.2137 30.4691C26.7693 31.2834 26.6649 32.1875 26.6239 33.0941C26.563 34.4175 26.1653 34.7638 24.8422 34.8275C22.0113 34.9591 19.3266 34.5274 16.8332 33.0966C14.6313 31.8343 12.9273 30.0498 11.4438 28.0319C8.55272 24.0978 6.33841 19.7787 4.35031 15.3355C3.90099 14.334 4.22913 13.7974 5.32603 13.7781C7.1544 13.7419 8.98215 13.7462 10.808 13.7756C11.5507 13.788 12.0435 14.2142 12.3275 14.9187C13.3157 17.3565 14.5245 19.6764 16.0415 21.8291C16.4473 22.4019 16.86 22.9722 17.4448 23.3765C18.093 23.8251 18.5883 23.6785 18.894 22.9497C19.0886 22.4867 19.1737 21.9944 19.2147 21.4996C19.3601 19.8056 19.3775 18.1096 19.1271 16.4205C18.9717 15.3648 18.377 14.6822 17.3285 14.4825C16.7941 14.3802 16.8742 14.183 17.1315 13.8754C17.5833 13.3469 18.0084 13.0175 18.8505 13.0175H25.1746C26.1721 13.2128 26.3958 13.6639 26.5313 14.6703L26.5363 21.7267C26.5245 22.1167 26.7308 23.2717 27.4275 23.5275C27.9856 23.7128 28.3572 23.2617 28.6922 22.906C30.2067 21.2925 31.2875 19.3844 32.2532 17.4102C32.6808 16.5422 33.05 15.6406 33.4092 14.7383C33.6739 14.0707 34.0866 13.7419 34.8367 13.7537L40.9253 13.7612C41.1049 13.7612 41.2894 13.7612 41.4666 13.7905C42.4908 13.9684 42.7723 14.412 42.4541 15.4185C41.9569 16.9952 40.9831 18.3118 40.0341 19.6302C39.0167 21.0416 37.9341 22.4037 36.9242 23.8226C36.002 25.1217 36.0747 25.775 37.2231 26.9006Z" fill="#003268"/>
</svg>
