<svg width="56" height="81" viewBox="0 0 56 81" fill="none" xmlns="http://www.w3.org/2000/svg">
<path d="M28 18.225C30.6522 18.225 33.1957 19.2917 35.0711 21.1905C36.9464 23.0894 38 25.6647 38 28.35C38 29.6796 37.7413 30.9963 37.2388 32.2247C36.7362 33.4531 35.9997 34.5693 35.0711 35.5095C34.1425 36.4496 33.0401 37.1955 31.8268 37.7043C30.6136 38.2131 29.3132 38.475 28 38.475C25.3478 38.475 22.8043 37.4083 20.9289 35.5095C19.0536 33.6107 18 31.0353 18 28.35C18 25.6647 19.0536 23.0894 20.9289 21.1905C22.8043 19.2917 25.3478 18.225 28 18.225ZM28 0C35.4261 0 42.548 2.98687 47.799 8.30352C53.05 13.6202 56 20.8311 56 28.35C56 49.6125 28 81 28 81C28 81 0 49.6125 0 28.35C0 20.8311 2.94999 13.6202 8.20101 8.30352C13.452 2.98687 20.5739 0 28 0ZM28 8.1C22.6957 8.1 17.6086 10.2335 13.8579 14.0311C10.1071 17.8287 8 22.9794 8 28.35C8 32.4 8 40.5 28 67.6755C48 40.5 48 32.4 48 28.35C48 22.9794 45.8929 17.8287 42.1421 14.0311C38.3914 10.2335 33.3043 8.1 28 8.1Z" fill="#003268"/>
</svg>
