<svg width="83" height="83" viewBox="0 0 83 83" fill="none" xmlns="http://www.w3.org/2000/svg">
<path d="M8.3 8.3H37.35V0H8.3C6.0987 0 3.98757 0.874461 2.43101 2.43101C0.874461 3.98757 0 6.0987 0 8.3V37.35H8.3V8.3ZM33.2 45.65L16.6 66.4H66.4L53.95 49.8L45.5255 61.0465L33.2 45.65ZM62.25 26.975C62.25 25.324 61.5942 23.7407 60.4267 22.5733C59.2593 21.4058 57.676 20.75 56.025 20.75C54.374 20.75 52.7907 21.4058 51.6233 22.5733C50.4558 23.7407 49.8 25.324 49.8 26.975C49.8 28.626 50.4558 30.2093 51.6233 31.3767C52.7907 32.5442 54.374 33.2 56.025 33.2C57.676 33.2 59.2593 32.5442 60.4267 31.3767C61.5942 30.2093 62.25 28.626 62.25 26.975ZM74.7 0H45.65V8.3H74.7V37.35H83V8.3C83 6.0987 82.1255 3.98757 80.569 2.43101C79.0124 0.874461 76.9013 0 74.7 0ZM74.7 74.7H45.65V83H74.7C76.9013 83 79.0124 82.1255 80.569 80.569C82.1255 79.0124 83 76.9013 83 74.7V45.65H74.7V74.7ZM8.3 45.65H0V74.7C0 76.9013 0.874461 79.0124 2.43101 80.569C3.98757 82.1255 6.0987 83 8.3 83H37.35V74.7H8.3V45.65Z" fill="#003268"/>
</svg>
