<svg width="122" height="83" viewBox="0 0 122 83" fill="none" xmlns="http://www.w3.org/2000/svg">
<path d="M61 0C65.7186 0 70.244 2.11077 73.5806 5.86797C76.9172 9.62516 78.7917 14.721 78.7917 20.0345C78.7917 25.348 76.9172 30.4438 73.5806 34.201C70.244 37.9582 65.7186 40.069 61 40.069C56.2814 40.069 51.756 37.9582 48.4194 34.201C45.0828 30.4438 43.2083 25.348 43.2083 20.0345C43.2083 14.721 45.0828 9.62516 48.4194 5.86797C51.756 2.11077 56.2814 0 61 0ZM25.4167 14.3103C28.2633 14.3103 30.9067 15.169 33.1942 16.7145C32.4317 24.9 34.5667 33.0283 38.9383 39.3821C36.3967 44.8772 31.3133 48.6552 25.4167 48.6552C21.3721 48.6552 17.4932 46.8459 14.6333 43.6255C11.7734 40.405 10.1667 36.0372 10.1667 31.4828C10.1667 26.9284 11.7734 22.5605 14.6333 19.34C17.4932 16.1196 21.3721 14.3103 25.4167 14.3103ZM96.5833 14.3103C100.628 14.3103 104.507 16.1196 107.367 19.34C110.227 22.5605 111.833 26.9284 111.833 31.4828C111.833 36.0372 110.227 40.405 107.367 43.6255C104.507 46.8459 100.628 48.6552 96.5833 48.6552C90.6867 48.6552 85.6033 44.8772 83.0617 39.3821C87.4333 33.0283 89.5683 24.9 88.8058 16.7145C91.0933 15.169 93.7367 14.3103 96.5833 14.3103ZM27.9583 72.9828C27.9583 61.1338 42.7508 51.5172 61 51.5172C79.2492 51.5172 94.0417 61.1338 94.0417 72.9828V83H27.9583V72.9828ZM0 83V74.4138C0 66.4572 9.6075 59.76 22.6208 57.8138C19.6217 61.7062 17.7917 67.0869 17.7917 72.9828V83H0ZM122 83H104.208V72.9828C104.208 67.0869 102.378 61.7062 99.3792 57.8138C112.393 59.76 122 66.4572 122 74.4138V83Z" fill="#003268"/>
</svg>
