<svg width="912" height="41" viewBox="0 0 912 41" fill="none" xmlns="http://www.w3.org/2000/svg">
<path d="M455.093 9.82226V30.8223H450.203L440.933 19.6323V30.8223H435.113V9.82226H440.003L449.273 21.0123V9.82226H455.093ZM469.873 31.2423C467.653 31.2423 465.653 30.7723 463.873 29.8323C462.113 28.8923 460.723 27.5923 459.703 25.9323C458.703 24.2723 458.203 22.4023 458.203 20.3223C458.203 18.2423 458.703 16.3723 459.703 14.7123C460.723 13.0523 462.113 11.7523 463.873 10.8123C465.653 9.87226 467.653 9.40226 469.873 9.40226C472.093 9.40226 474.083 9.87226 475.843 10.8123C477.623 11.7523 479.013 13.0523 480.013 14.7123C481.033 16.3723 481.543 18.2423 481.543 20.3223C481.543 22.4023 481.033 24.2723 480.013 25.9323C479.013 27.5923 477.623 28.8923 475.843 29.8323C474.083 30.7723 472.093 31.2423 469.873 31.2423ZM469.873 26.3223C470.933 26.3223 471.893 26.0723 472.753 25.5723C473.613 25.0723 474.293 24.3723 474.793 23.4723C475.293 22.5523 475.543 21.5023 475.543 20.3223C475.543 19.1423 475.293 18.1023 474.793 17.2023C474.293 16.2823 473.613 15.5723 472.753 15.0723C471.893 14.5723 470.933 14.3223 469.873 14.3223C468.813 14.3223 467.853 14.5723 466.993 15.0723C466.133 15.5723 465.453 16.2823 464.953 17.2023C464.453 18.1023 464.203 19.1423 464.203 20.3223C464.203 21.5023 464.453 22.5523 464.953 23.4723C465.453 24.3723 466.133 25.0723 466.993 25.5723C467.853 26.0723 468.813 26.3223 469.873 26.3223ZM516.862 9.82226L510.052 30.8223H503.692L499.672 18.0423L495.472 30.8223H489.112L482.302 9.82226H488.422L492.652 23.2323L497.092 9.82226H502.552L506.782 23.3523L511.192 9.82226H516.862Z" fill="#003268"/>
<path d="M57.6185 9.82226C59.5185 9.82226 61.1685 10.1423 62.5685 10.7823C63.9685 11.4023 65.0485 12.3023 65.8085 13.4823C66.5685 14.6423 66.9485 16.0123 66.9485 17.5923C66.9485 19.1723 66.5685 20.5423 65.8085 21.7023C65.0485 22.8623 63.9685 23.7623 62.5685 24.4023C61.1685 25.0223 59.5185 25.3323 57.6185 25.3323H53.9585V30.8223H48.0185V9.82226H57.6185ZM57.2585 20.6523C58.4785 20.6523 59.3985 20.3923 60.0185 19.8723C60.6385 19.3323 60.9485 18.5723 60.9485 17.5923C60.9485 16.6123 60.6385 15.8523 60.0185 15.3123C59.3985 14.7723 58.4785 14.5023 57.2585 14.5023H53.9585V20.6523H57.2585ZM82.86 26.7423H73.98L72.33 30.8223H66.27L75.54 9.82226H81.39L90.69 30.8223H84.51L82.86 26.7423ZM81.12 22.3623L78.42 15.6423L75.72 22.3623H81.12ZM99.754 31.2423C98.054 31.2423 96.404 31.0323 94.804 30.6123C93.204 30.1923 91.904 29.6323 90.904 28.9323L92.854 24.5523C93.794 25.1723 94.884 25.6723 96.124 26.0523C97.364 26.4323 98.584 26.6223 99.784 26.6223C102.064 26.6223 103.204 26.0523 103.204 24.9123C103.204 24.3123 102.874 23.8723 102.214 23.5923C101.574 23.2923 100.534 22.9823 99.094 22.6623C97.514 22.3223 96.194 21.9623 95.134 21.5823C94.074 21.1823 93.164 20.5523 92.404 19.6923C91.644 18.8323 91.264 17.6723 91.264 16.2123C91.264 14.9323 91.614 13.7823 92.314 12.7623C93.014 11.7223 94.054 10.9023 95.434 10.3023C96.834 9.70226 98.544 9.40226 100.564 9.40226C101.944 9.40226 103.304 9.56226 104.644 9.88227C105.984 10.1823 107.164 10.6323 108.184 11.2323L106.354 15.6423C104.354 14.5623 102.414 14.0223 100.534 14.0223C99.354 14.0223 98.494 14.2023 97.954 14.5623C97.414 14.9023 97.144 15.3523 97.144 15.9123C97.144 16.4723 97.464 16.8923 98.104 17.1723C98.744 17.4523 99.774 17.7423 101.194 18.0423C102.794 18.3823 104.114 18.7523 105.154 19.1523C106.214 19.5323 107.124 20.1523 107.884 21.0123C108.664 21.8523 109.054 23.0023 109.054 24.4623C109.054 25.7223 108.704 26.8623 108.004 27.8823C107.304 28.9023 106.254 29.7223 104.854 30.3423C103.454 30.9423 101.754 31.2423 99.754 31.2423ZM115.975 14.5323H109.525V9.82226H128.335V14.5323H121.915V30.8223H115.975V14.5323Z" fill="#003268" fill-opacity="0.6"/>
<path d="M374.294 21.9843L336.907 3.64453L352.768 21.9843H374.294Z" fill="#FFB46B" fill-opacity="0.6"/>
<path d="M336.907 39.1779L374.294 21.9843H352.768L336.907 39.1779Z" fill="#FFB46B" fill-opacity="0.6"/>
<path d="M374.294 21.9843L374.921 23.3471L377.789 22.028L374.955 20.6376L374.294 21.9843ZM336.907 3.64453L337.568 2.29784L335.773 4.62574L336.907 3.64453ZM336.907 39.1779L335.805 38.1608L337.534 40.5407L336.907 39.1779ZM374.955 20.6376L337.568 2.29784L336.247 4.99123L373.633 23.331L374.955 20.6376ZM373.667 20.6215L336.281 37.8151L337.534 40.5407L374.921 23.3471L373.667 20.6215ZM230.054 23.4843H352.768V20.4843H230.054V23.4843ZM352.768 23.4843H374.294V20.4843H352.768V23.4843ZM338.01 40.1949L353.871 23.0014L351.666 20.9672L335.805 38.1608L338.01 40.1949ZM335.773 4.62574L351.634 22.9655L353.903 21.0031L338.042 2.66332L335.773 4.62574Z" fill="#003268"/>
<path d="M720.288 21.9843L682.902 3.64453L698.762 21.9843H720.288Z" fill="#FFB46B" fill-opacity="0.6"/>
<path d="M682.902 39.1779L720.288 21.9843H698.762L682.902 39.1779Z" fill="#FFB46B" fill-opacity="0.6"/>
<path d="M720.288 21.9843L720.915 23.3471L723.783 22.028L720.949 20.6376L720.288 21.9843ZM682.902 3.64453L683.562 2.29784L681.767 4.62574L682.902 3.64453ZM682.902 39.1779L681.799 38.1608L683.528 40.5407L682.902 39.1779ZM720.949 20.6376L683.562 2.29784L682.241 4.99123L719.627 23.331L720.949 20.6376ZM719.661 20.6215L682.275 37.8151L683.528 40.5407L720.915 23.3471L719.661 20.6215ZM576.048 23.4843H698.762V20.4843H576.048V23.4843ZM698.762 23.4843H720.288V20.4843H698.762V23.4843ZM684.004 40.1949L699.865 23.0014L697.66 20.9672L681.799 38.1608L684.004 40.1949ZM681.767 4.62574L697.628 22.9655L699.897 21.0031L684.036 2.66332L681.767 4.62574Z" fill="#003268" fill-opacity="0.6"/>
<path d="M788.439 12.59V17.21H797.709V21.8H788.439V29H782.499V8H798.969V12.59H788.439ZM811.437 29.42C808.317 29.42 805.887 28.57 804.147 26.87C802.427 25.17 801.567 22.76 801.567 19.64V8H807.507V19.46C807.507 22.82 808.837 24.5 811.497 24.5C814.137 24.5 815.457 22.82 815.457 19.46V8H821.307V19.64C821.307 22.76 820.437 25.17 818.697 26.87C816.977 28.57 814.557 29.42 811.437 29.42ZM829.478 12.71H823.028V8H841.838V12.71H835.418V29H829.478V12.71ZM853.419 29.42C850.299 29.42 847.869 28.57 846.129 26.87C844.409 25.17 843.549 22.76 843.549 19.64V8H849.489V19.46C849.489 22.82 850.819 24.5 853.479 24.5C856.119 24.5 857.439 22.82 857.439 19.46V8H863.289V19.64C863.289 22.76 862.419 25.17 860.679 26.87C858.959 28.57 856.539 29.42 853.419 29.42ZM876.493 23.42H873.253V29H867.313V8H876.913C878.813 8 880.463 8.32 881.863 8.96C883.263 9.58 884.343 10.48 885.103 11.66C885.863 12.82 886.243 14.19 886.243 15.77C886.243 17.29 885.883 18.62 885.163 19.76C884.463 20.88 883.453 21.76 882.133 22.4L886.663 29H880.303L876.493 23.42ZM880.243 15.77C880.243 14.79 879.933 14.03 879.313 13.49C878.693 12.95 877.773 12.68 876.553 12.68H873.253V18.83H876.553C877.773 18.83 878.693 18.57 879.313 18.05C879.933 17.51 880.243 16.75 880.243 15.77ZM906.38 24.41V29H889.52V8H905.99V12.59H895.4V16.13H904.73V20.57H895.4V24.41H906.38Z" fill="#003268" fill-opacity="0.6"/>
</svg>
