<?xml version="1.0" encoding="utf-8"?><svg viewBox="0 0 282 145" xmlns="http://www.w3.org/2000/svg" xmlns:xlink="http://www.w3.org/1999/xlink"><style>:root>svg{display:none}:root>svg:target{display:block}</style><svg fill="none" viewBox="0 0 136 135" id="expo_main_icon_1" xmlns="http://www.w3.org/2000/svg"><path d="M67.872 134.919c37.162 0 67.287-30.126 67.287-67.288 0-37.162-30.125-67.287-67.287-67.287C30.71.344.584 30.469.584 67.63c0 37.162 30.126 67.288 67.288 67.288z" fill="#DDD"/><path d="M86.4 95.718c11.85 0 21.457-9.606 21.457-21.456s-9.606-21.455-21.456-21.455-21.456 9.606-21.456 21.455c0 11.85 9.606 21.456 21.456 21.456z" fill="#FF9F43"/><path d="M96.1 61.967l-8.804 8.803a3.46 3.46 0 00-2.545.121 3.447 3.447 0 00-1.835 4.26l-8.808 8.808a1.832 1.832 0 002.591 2.592l8.81-8.808a3.447 3.447 0 004.376-4.38l8.808-8.805a1.832 1.832 0 00-2.591-2.591H96.1zm17.794 30.614a9.178 9.178 0 01-9.164 9.167H42.416a9.175 9.175 0 01-9.164-9.167V55.93a9.176 9.176 0 019.164-9.163h62.314a9.177 9.177 0 019.164 9.163v36.652zm-6.235-49.114a1.885 1.885 0 00-.663-.316L31.852 24.824a1.833 1.833 0 10-.869 3.563L91.31 43.1H42.416a12.843 12.843 0 00-12.831 12.83V92.58a12.805 12.805 0 0010.998 12.646v2.02a1.831 1.831 0 001.833 1.832h3.665a1.83 1.83 0 001.833-1.832v-1.833h51.318v1.833a1.83 1.83 0 001.832 1.832h3.666c.486 0 .952-.193 1.295-.537.344-.343.537-.809.537-1.295v-2.02a12.808 12.808 0 0010.997-12.646V55.93a12.837 12.837 0 00-9.9-12.462zM55.245 90.751a3.666 3.666 0 100 7.331 3.666 3.666 0 000-7.33zm31.157 3.665a20.16 20.16 0 1120.16-20.16 20.18 20.18 0 01-20.16 20.16zm0-43.986a23.826 23.826 0 1023.823 23.826 23.852 23.852 0 00-23.823-23.826zM38.751 61.428h14.662a1.833 1.833 0 000-3.665H38.75a1.833 1.833 0 100 3.665zm0 21.993h14.662a1.833 1.833 0 100-3.665H38.75a1.833 1.833 0 100 3.665zm3.665 10.997a1.832 1.832 0 110-3.663 1.832 1.832 0 010 3.662v.001zm0-7.331a5.498 5.498 0 100 10.997 5.498 5.498 0 000-10.998zM38.751 72.42h14.662a1.833 1.833 0 000-3.665H38.75a1.833 1.833 0 100 3.665z" fill="#003268"/></svg><svg fill="none" viewBox="0 0 135 135" id="expo_main_icon_2" xmlns="http://www.w3.org/2000/svg"><path d="M67.705 134.575c37.162 0 67.288-30.126 67.288-67.287C134.993 30.125 104.867 0 67.705 0 30.544 0 .418 30.126.418 67.287c0 37.162 30.126 67.288 67.287 67.288z" fill="#DDD"/><path d="M74.319 37.799h-5.65v17.004h5.65V37.799z" fill="#FF9F43"/><path d="M72.842 35.408c2.868.434 3.91 1.656 3.91 4.568V52.88c0 2.934-.797 3.97-3.673 4.717v3.493h-3.611v-3.476c-.299-.079-.522-.142-.746-.194a3.63 3.63 0 01-2.975-3.642c-.03-4.866-.03-9.734 0-14.604a3.589 3.589 0 012.669-3.526c.165-.053.327-.116.564-.2a9.083 9.083 0 00-3.483-4.961A12.621 12.621 0 0058.9 28.25a21.884 21.884 0 00-12.166 2.112 14.583 14.583 0 00-8.168 12.165 50.226 50.226 0 003.515 24.826c.278.658.627 1.286.944 1.927.04.077.097.147.251.376.58-2.41 1.183-4.65 4.151-4.826V37.354h3.621V44.6H63.84v3.736H51.135v16.448h40.199v-16.43H78.626v-3.667h12.763v-7.337h3.65v27.454c2.276.192 3.293 1.545 3.851 3.563 2.251 8.13 4.585 16.238 6.865 24.36.182.662.277 1.344.282 2.03.028 3.315.02 6.631.01 9.946 0 2.706-1.448 4.181-4.122 4.181-20.45.007-40.9.007-61.35 0-2.688 0-4.122-1.477-4.13-4.18 0-3.284-.18-6.584.06-9.856a33.255 33.255 0 011.405-6.25c1.23-4.48 2.543-8.95 3.79-13.429a1.535 1.535 0 00-.106-1.138 39.263 39.263 0 01-5.909-15.334 56.191 56.191 0 01-.92-15.155c.868-9.856 6.598-16.764 16.78-18.62 4.05-.85 8.252-.624 12.187.654 4.627 1.613 7.734 4.693 8.988 9.513.033.11.074.216.122.32zM40.126 94.135h62.235l-7.158-25.24-.202.035v5.04h-3.624v-5.397h-3.302c1.211 7.34 2.416 14.6 3.627 21.91H50.781l3.63-21.935h-3.349v5.415h-3.65v-4.99l-.134-.014-7.152 25.176zm.033 11.015H102.3v-7.237H40.16l-.001 7.237zm27.278-36.627l-1.525 18.29H76.58l-1.529-18.29h-7.613zm-3.692.014h-5.603c-1.01 6.083-2.021 12.15-3.047 18.335 2.19 0 4.266-.027 6.344.015.671.015.833-.213.883-.857.307-4.041.667-8.081 1.004-12.118.138-1.776.275-3.548.42-5.374l-.001-.001zm23.657 18.335l-3.047-18.307h-5.541a.742.742 0 00-.038.16c.478 5.882.961 11.762 1.45 17.64a.697.697 0 00.459.482c2.197.032 4.394.022 6.715.022l.002.003zM73 53.771V39.193h-3.495v14.578H73z" fill="#003268"/><path d="M73.057 101.535a1.813 1.813 0 11-1.812-1.83h.019a1.85 1.85 0 011.793 1.83z" fill="#003268"/></svg><svg fill="none" viewBox="0 0 136 135" id="expo_main_icon_3" xmlns="http://www.w3.org/2000/svg"><path d="M67.956 134.575c37.162 0 67.287-30.126 67.287-67.287C135.243 30.125 105.118 0 67.956 0 30.794 0 .668 30.126.668 67.287c0 37.162 30.126 67.288 67.288 67.288z" fill="#DDD"/><path fill-rule="evenodd" clip-rule="evenodd" d="M31.28 99.489l.539-4.406 1.998-4.119 4.058-2.068 2.233-1.252a8.394 8.394 0 004.684 4.615l-2.85 4.492-2.529 3.537-5.596.799-1.738-.139-.8-1.46z" fill="#FF9F43"/><path d="M25.482 105.061a1.66 1.66 0 011.627 1.982 1.66 1.66 0 01-3.006.599 1.663 1.663 0 01.206-2.095 1.656 1.656 0 011.173-.486zM67.857 62.986a1.655 1.655 0 110 3.311 1.655 1.655 0 010-3.31zM87.198 51.279a3.737 3.737 0 11-5.285-5.284 3.737 3.737 0 015.285 5.284zm-2.642-9.69a7.047 7.047 0 104.984 2.066 7 7 0 00-4.984-2.065zM44.505 92.043a1.657 1.657 0 00-2.22.744l-1.972 3.96a5.465 5.465 0 01-4.501 3.005l-2.294.158a.983.983 0 01-1.043-1.043l.157-2.293a5.465 5.465 0 013.005-4.501l3.96-1.972a1.656 1.656 0 00-1.477-2.964l-3.962 1.967a8.789 8.789 0 00-4.832 7.24l-.157 2.293a4.292 4.292 0 004.576 4.575l2.294-.158a8.785 8.785 0 007.238-4.835l1.971-3.96a1.655 1.655 0 00-.743-2.216z" fill="#003268"/><path d="M104.911 29.098a46.453 46.453 0 01-17.938 34.464l-25.968 20.15a35.068 35.068 0 01-5.996-4.43l8.753-8.751a1.656 1.656 0 10-2.342-2.342l-8.747 8.747a35.078 35.078 0 01-4.244-5.79l21.29-26.213a46.635 46.635 0 0133.135-17.09l1.541-.098a.522.522 0 01.555.547l-.039.806zM81.854 78.225a24.725 24.725 0 01-7.289 17.597l-7.093 7.093-.99-19.261 15.372-11.928v6.5zm-27.557 7.62c-.865.722-1.75 1.461-2.573 2.137a18.19 18.19 0 01-7.377-7.37l3.575-4.244a38.38 38.38 0 008.106 8.034c-.574.474-1.156.963-1.731 1.443zm-25.01-21.118l7.093-7.093a24.72 24.72 0 0117.573-7.29l6.94.205-12.321 15.17-19.286-.992zm77.832-39.19a3.823 3.823 0 00-2.934-1.094l-1.546.096A49.958 49.958 0 0067.15 42.845l-3.628 4.468-9.497-.277h-.048a28.012 28.012 0 00-19.938 8.256l-9.728 9.727a1.655 1.655 0 001.087 2.824l20.585 1.058-.84 1.033a1.651 1.651 0 00-.17 1.835c.323.593.661 1.177 1.014 1.751l-4.883 5.796a1.656 1.656 0 00-.23 1.775 21.556 21.556 0 0010.355 10.35 1.656 1.656 0 001.752-.212c1.052-.853 2.265-1.865 3.438-2.844.836-.695 1.69-1.41 2.49-2.069.478.29.961.567 1.45.833a1.651 1.651 0 001.807-.147l1.13-.876 1.063 20.676a1.66 1.66 0 001.059 1.461 1.657 1.657 0 001.765-.375l9.724-9.724a28.01 28.01 0 008.255-19.939v-9.069L89 66.178a49.753 49.753 0 0019.218-36.919l.039-.805a3.843 3.843 0 00-1.138-2.92v.003z" fill="#003268"/></svg><svg fill="none" viewBox="0 0 136 136" id="expo_main_icon_4" xmlns="http://www.w3.org/2000/svg"><path d="M67.715 135.069c37.162 0 67.288-30.125 67.288-67.287 0-37.162-30.126-67.288-67.288-67.288C30.553.494.428 30.62.428 67.782c0 37.162 30.125 67.287 67.287 67.287z" fill="#DDD"/><path fill-rule="evenodd" clip-rule="evenodd" d="M34.4 60.189L45.123 56l10.81 4.189 1.147 8.029-3.32 7.525-6.682 6.066-3.25.225-6.283-4.788-2.294-6.916L34 64.56l.4-4.371z" fill="#FF9F43"/><path d="M80.063 24.586c-11.913 0-23.972 2.907-23.972 8.46v2.82H23.66a4.229 4.229 0 00-4.23 4.231V73.94a4.23 4.23 0 004.23 4.23h1.41v9.599l-5.54 13.849a1.42 1.42 0 00-.1.521v4.23a2.82 2.82 0 002.82 2.82h53.582a2.815 2.815 0 001.994-.826 2.824 2.824 0 00.826-1.994v-4.227c0-.179-.034-.356-.1-.522l-5.54-13.851v-1.512c2.29.228 4.64.373 7.05.373 11.912 0 23.971-2.906 23.971-8.46V33.047c.001-5.554-12.059-8.46-23.97-8.46zm0 2.82c12.91 0 21.15 3.34 21.15 5.64s-8.24 5.64-21.15 5.64a58.323 58.323 0 01-13.904-1.541 4.206 4.206 0 00-3.02-1.278h-.829c-2.49-1.073-3.402-2.154-3.402-2.82.003-2.3 8.243-5.641 21.155-5.641zM23.66 38.686h39.479a1.41 1.41 0 011.41 1.411v7.051h-42.3v-7.05a1.41 1.41 0 011.41-1.411zM22.25 73.94V49.968h42.302v23.971a1.41 1.41 0 01-1.413 1.41H56.57a18.255 18.255 0 002.341-8.906v-6.605a1.41 1.41 0 00-.913-1.32l-11.284-4.231a1.428 1.428 0 00-.988 0l-11.278 4.23a1.41 1.41 0 00-.919 1.32v6.605c.007 3.12.813 6.186 2.341 8.906H23.66a1.41 1.41 0 01-1.41-1.41v.001zm14.1-7.496v-5.628l9.87-3.702 9.871 3.702v5.628a15.583 15.583 0 01-9.87 14.452 15.583 15.583 0 01-9.87-14.452zm1.455 11.726a18.255 18.255 0 007.614 5.437l.3.114c.318.119.668.119.987 0l.3-.114a18.249 18.249 0 007.63-5.437h8.503a4.23 4.23 0 004.23-4.23V58.43h1.41a1.41 1.41 0 011.41 1.41V86.63h-42.3v-8.46h9.916zM58.6 100.73l-1.142-4.572a1.41 1.41 0 00-1.368-1.068h-14.1a1.41 1.41 0 00-1.368 1.068l-1.142 4.572H22.923l4.512-11.28h43.212l4.512 11.28H58.601zm-2.907 0H42.388l.705-2.82h11.896l.705 2.82zm-33.444 5.641v-2.821h53.582v2.82l-53.582.001zM80.063 83.81a68.185 68.185 0 01-7.05-.384v-8.46c2.341.248 4.695.376 7.05.384 8.422 0 16.895-1.46 21.15-4.275v7.094c0 2.3-8.24 5.64-21.15 5.64zm0-11.281a65.068 65.068 0 01-7.05-.394V63.69c2.342.248 4.695.375 7.05.381 8.422 0 16.895-1.46 21.15-4.274v7.094c0 2.297-8.24 5.638-21.15 5.638zm0-11.281a65.068 65.068 0 01-7.05-.394v-1.016a4.23 4.23 0 00-4.231-4.23h-1.41v-4.033a63.735 63.735 0 0012.687 1.217c8.423 0 16.895-1.46 21.151-4.275v7.091c.003 2.3-8.236 5.64-21.147 5.64zm0-11.281a61.203 61.203 0 01-12.687-1.252v-8.4a64.405 64.405 0 0012.687 1.196c8.422 0 16.895-1.46 21.15-4.274v7.094c0 2.296-8.24 5.637-21.15 5.637v-.001z" fill="#003268"/><path d="M95.574 41.504h2.82v2.82h-2.82v-2.82zM89.934 42.92h2.82v2.82h-2.82v-2.82zM84.293 44.327h2.82v2.82h-2.82v-2.82zM95.574 52.787h2.82v2.821h-2.82v-2.82zM89.934 54.196h2.82v2.82h-2.82v-2.82zM84.293 55.608h2.82v2.82h-2.82v-2.82zM95.574 64.069h2.82v2.82h-2.82v-2.82zM89.934 65.477h2.82v2.817h-2.82v-2.817zM84.293 66.887h2.82v2.82h-2.82v-2.82zM95.574 75.348h2.82v2.82h-2.82v-2.82zM89.934 76.76h2.82v2.82h-2.82v-2.82zM84.293 78.168h2.82v2.82h-2.82v-2.82zM88.524 31.637h-16.92v2.82h16.92v-2.82zM25.07 41.504h2.82v2.82h-2.82v-2.82zM30.71 41.504h2.82v2.82h-2.82v-2.82zM36.352 41.504h2.82v2.82h-2.82v-2.82zM44.81 73.939c.375 0 .733-.149.997-.413l7.05-7.05-1.993-1.995-6.053 6.053-3.234-3.233-1.993 1.994 4.23 4.23c.264.264.623.413.997.414z" fill="#003268"/></svg><svg fill="none" viewBox="0 0 17 22" id="footer_address_icon" xmlns="http://www.w3.org/2000/svg"><path d="M8.018 0A8.053 8.053 0 002.35 2.337 7.953 7.953 0 000 7.967c0 5.454 7.176 13.459 7.481 13.797a.723.723 0 001.07 0c.307-.338 7.482-8.343 7.482-13.796a7.952 7.952 0 00-2.35-5.63A8.053 8.053 0 008.018 0zm0 11.977a4.052 4.052 0 01-2.242-.676 4.015 4.015 0 01-1.485-1.799 3.986 3.986 0 01.874-4.369 4.058 4.058 0 014.396-.87 4.029 4.029 0 011.81 1.478c.444.659.68 1.434.68 2.227A4.002 4.002 0 0110.87 10.8a4.052 4.052 0 01-2.851 1.176z" fill="#F7F7F7"/></svg><svg fill="none" viewBox="0 0 56 56" id="footer_icon_vk" xmlns="http://www.w3.org/2000/svg"><circle cx="28" cy="28" r="27.375" fill="#003268" stroke="#fff" stroke-width="1.25"/><path fill="#fff" d="M10.866 14.209h34.269v29.254H10.866z"/><path fill-rule="evenodd" clip-rule="evenodd" d="M45.474 8.358h-35.03a2.09 2.09 0 00-2.086 2.094v35.17c0 1.158.933 2.094 2.086 2.094h35.03a2.088 2.088 0 002.085-2.093V10.452a2.09 2.09 0 00-2.085-2.094zm-5.892 22.168c1.068 1.047 2.198 2.033 3.157 3.19.424.511.825 1.039 1.13 1.631.434.849.041 1.78-.714 1.83l-4.694-.002c-1.211.1-2.177-.39-2.991-1.222-.647-.663-1.253-1.372-1.878-2.057a4.432 4.432 0 00-.843-.757c-.64-.417-1.197-.29-1.564.38-.372.683-.46 1.442-.494 2.202-.051 1.11-.385 1.4-1.495 1.454-2.374.11-4.626-.252-6.718-1.452-1.847-1.058-3.276-2.555-4.52-4.248-2.425-3.3-4.283-6.923-5.95-10.65-.377-.84-.102-1.29.818-1.306a128.4 128.4 0 014.598-.002c.623.01 1.037.368 1.275.959.829 2.044 1.843 3.99 3.115 5.796.34.48.687.959 1.177 1.298.544.376.96.253 1.216-.358.163-.388.235-.801.269-1.216.122-1.421.136-2.844-.074-4.26-.13-.886-.629-1.459-1.508-1.626-.449-.086-.381-.252-.165-.51.379-.443.735-.72 1.441-.72h5.305c.837.165 1.024.543 1.138 1.387l.004 5.92c-.01.326.163 1.295.748 1.51.468.155.78-.223 1.06-.521 1.271-1.354 2.178-2.954 2.988-4.61.358-.729.668-1.485.97-2.242.221-.56.567-.836 1.197-.826l5.107.007c.15 0 .305 0 .454.024.859.15 1.095.522.828 1.366-.417 1.322-1.234 2.427-2.03 3.533-.853 1.184-1.761 2.326-2.608 3.516-.774 1.09-.713 1.638.25 2.582z" fill="#003268"/></svg><svg fill="none" viewBox="0 0 23 20" id="footer_mobile" xmlns="http://www.w3.org/2000/svg"><path d="M21.755 15.358l-3.437-3.007a1.977 1.977 0 00-2.526.042l-1.731 1.514-.342-.17a17.43 17.43 0 01-4.166-2.634 15.326 15.326 0 01-3.017-3.646c-.065-.1-.127-.2-.186-.292l1.165-1.014.572-.5a1.433 1.433 0 00.046-2.209L4.691.437a1.975 1.975 0 00-2.527.04l-.962.851.025.023c-.33.367-.6.782-.802 1.231a4.55 4.55 0 00-.354 1.25c-.455 3.29 1.264 6.3 5.929 10.377 6.45 5.64 11.648 5.214 11.872 5.193.488-.05.969-.155 1.433-.314a5.8 5.8 0 001.402-.695l.021.017.983-.84a1.437 1.437 0 00.044-2.212z" fill="#F7F7F7"/></svg><svg fill="none" viewBox="0 0 146 145" id="icon_chat_bot_main" xmlns="http://www.w3.org/2000/svg"><g filter="url(#hfilter0_d_247_2238)"><ellipse cx="72.802" cy="68.474" rx="68.306" ry="68.026" fill="#fff"/></g><g filter="url(#hfilter1_d_247_2238)"><g filter="url(#hfilter2_d_247_2238)"><path d="M92.302 73.339a2.69 2.69 0 01-1.493-.444 2.673 2.673 0 01-1.151-2.74c.102-.519.356-.996.73-1.37a2.686 2.686 0 012.925-.585 2.663 2.663 0 011.658 2.469 2.644 2.644 0 01-.775 1.889 2.664 2.664 0 01-1.894.78zm-13.047 0a2.69 2.69 0 01-1.493-.444 2.673 2.673 0 01-1.151-2.74c.102-.519.356-.996.73-1.37a2.686 2.686 0 012.925-.585 2.663 2.663 0 011.658 2.469 2.64 2.64 0 01-.775 1.889 2.661 2.661 0 01-1.894.78zm19.422 15.116c4.151-2.965 6.82-7.41 6.82-12.448 0-9.04-8.747-16.45-19.718-16.45-10.97 0-19.719 7.41-19.719 16.45s8.747 16.449 19.72 16.449c2.223 0 4.447-.296 6.374-.89.318-.11.445-.15.593-.15.366.01.723.112 1.038.299l4.306 2.519c.14.073.29.123.444.149a.64.64 0 00.594-.593 1.815 1.815 0 00-.098-.49c-.053-.186-.639-2.036-.94-3.215a2.403 2.403 0 01-.042-.44 1.445 1.445 0 01.638-1.19" fill="#003268"/></g><g filter="url(#hfilter3_d_247_2238)"><path d="M71.546 58.072a3.13 3.13 0 01-2.21-.911 3.105 3.105 0 010-4.401 3.131 3.131 0 012.21-.912c1.63 0 3.113 1.482 3.113 3.112.148 1.63-1.334 3.112-3.113 3.112zm-15.715 0a3.134 3.134 0 01-1.739-.518 3.101 3.101 0 01-.488-4.788 3.129 3.129 0 013.405-.683c.572.234 1.061.632 1.405 1.144.345.51.53 1.113.53 1.728a3.118 3.118 0 01-.914 2.193 3.144 3.144 0 01-2.199.92v.004zm7.857-16.597c-13.047 0-23.573 8.743-23.573 19.712 0 5.928 3.113 11.263 8.154 14.82.446.294.53.95.53 1.204.01.194-.018.389-.084.571-.446 1.482-1.014 3.88-1.039 4.008-.024.127-.148.445-.148.592a.694.694 0 00.45.697c.093.035.192.05.29.045a.915.915 0 00.447-.15l5.192-2.965c.445-.296.742-.296 1.186-.296.254.004.506.053.742.147 2.371.742 5.04 1.038 7.71 1.038h1.334a16.879 16.879 0 01-.742-4.89c0-9.93 9.637-17.932 21.498-17.932h1.334c-1.636-9.34-11.42-16.601-23.28-16.601z" fill="#003268"/></g></g><defs><filter id="hfilter0_d_247_2238" x=".497" y=".447" width="144.611" height="144.053" filterUnits="userSpaceOnUse" color-interpolation-filters="sRGB"><feFlood flood-opacity="0" result="BackgroundImageFix"/><feColorMatrix in="SourceAlpha" values="0 0 0 0 0 0 0 0 0 0 0 0 0 0 0 0 0 0 127 0" result="hardAlpha"/><feOffset dy="4"/><feGaussianBlur stdDeviation="2"/><feComposite in2="hardAlpha" operator="out"/><feColorMatrix values="0 0 0 0 0 0 0 0 0 0 0 0 0 0 0 0 0 0 0.25 0"/><feBlend in2="BackgroundImageFix" result="effect1_dropShadow_247_2238"/><feBlend in="SourceGraphic" in2="effect1_dropShadow_247_2238" result="shape"/></filter><filter id="hfilter1_d_247_2238" x="36.115" y="41.475" width="73.382" height="60.908" filterUnits="userSpaceOnUse" color-interpolation-filters="sRGB"><feFlood flood-opacity="0" result="BackgroundImageFix"/><feColorMatrix in="SourceAlpha" values="0 0 0 0 0 0 0 0 0 0 0 0 0 0 0 0 0 0 127 0" result="hardAlpha"/><feOffset dy="4"/><feGaussianBlur stdDeviation="2"/><feComposite in2="hardAlpha" operator="out"/><feColorMatrix values="0 0 0 0 0 0 0 0 0 0 0 0 0 0 0 0 0 0 0.25 0"/><feBlend in2="BackgroundImageFix" result="effect1_dropShadow_247_2238"/><feBlend in="SourceGraphic" in2="effect1_dropShadow_247_2238" result="shape"/></filter><filter id="hfilter2_d_247_2238" x="61.06" y="58.557" width="49.438" height="44.826" filterUnits="userSpaceOnUse" color-interpolation-filters="sRGB"><feFlood flood-opacity="0" result="BackgroundImageFix"/><feColorMatrix in="SourceAlpha" values="0 0 0 0 0 0 0 0 0 0 0 0 0 0 0 0 0 0 127 0" result="hardAlpha"/><feOffset dy="4"/><feGaussianBlur stdDeviation="2.5"/><feComposite in2="hardAlpha" operator="out"/><feColorMatrix values="0 0 0 0 0 0 0 0 0 0 0 0 0 0 0 0 0 0 0.4 0"/><feBlend in2="BackgroundImageFix" result="effect1_dropShadow_247_2238"/><feBlend in="SourceGraphic" in2="effect1_dropShadow_247_2238" result="shape"/></filter><filter id="hfilter3_d_247_2238" x="35.115" y="40.475" width="56.854" height="51.65" filterUnits="userSpaceOnUse" color-interpolation-filters="sRGB"><feFlood flood-opacity="0" result="BackgroundImageFix"/><feColorMatrix in="SourceAlpha" values="0 0 0 0 0 0 0 0 0 0 0 0 0 0 0 0 0 0 127 0" result="hardAlpha"/><feOffset dy="4"/><feGaussianBlur stdDeviation="2.5"/><feComposite in2="hardAlpha" operator="out"/><feColorMatrix values="0 0 0 0 0 0 0 0 0 0 0 0 0 0 0 0 0 0 0.4 0"/><feBlend in2="BackgroundImageFix" result="effect1_dropShadow_247_2238"/><feBlend in="SourceGraphic" in2="effect1_dropShadow_247_2238" result="shape"/></filter></defs></svg><svg fill="none" viewBox="0 0 42 42" id="icon_event_mobile" xmlns="http://www.w3.org/2000/svg"><path d="M34.231 6.473H8.34c-.715 0-1.295.58-1.295 1.295V33.66c0 .715.58 1.294 1.295 1.294H34.23c.715 0 1.295-.58 1.295-1.294V7.768c0-.715-.58-1.295-1.295-1.295zM29.053 3.237v3.236M13.517 3.237v3.236M7.044 14.241h28.482" stroke="#002B59" stroke-width="3" stroke-linecap="round" stroke-linejoin="round"/><path d="M14.812 20.714h4.53l-2.588 3.237a2.588 2.588 0 11-1.83 4.418M24.521 22.656l2.59-1.942v8.416" stroke="#002B59" stroke-width="3" stroke-linecap="round" stroke-linejoin="round"/></svg><svg fill="none" viewBox="0 0 77 77" id="icon_exposition_link_1" xmlns="http://www.w3.org/2000/svg"><path d="M38.5 77C59.763 77 77 59.763 77 38.5S59.763 0 38.5 0 0 17.237 0 38.5 17.237 77 38.5 77z" fill="#EFEFEF"/><path d="M49.101 54.572c6.78 0 12.276-5.497 12.276-12.277 0-6.78-5.496-12.276-12.276-12.276-6.78 0-12.276 5.496-12.276 12.276 0 6.78 5.496 12.277 12.276 12.277z" fill="#FF9F43"/><path d="M54.65 35.26l-5.037 5.037a1.98 1.98 0 00-1.457.069 1.973 1.973 0 00-1.05 2.437l-5.04 5.04a1.048 1.048 0 001.483 1.483l5.04-5.04a1.973 1.973 0 002.505-2.506l5.04-5.038a1.049 1.049 0 00-1.483-1.482zm10.181 17.516a5.25 5.25 0 01-5.244 5.245H23.933a5.25 5.25 0 01-5.243-5.245v-20.97a5.25 5.25 0 015.243-5.244h35.654a5.25 5.25 0 015.244 5.243v20.971zm-3.567-28.102a1.077 1.077 0 00-.38-.18L17.89 14.007a1.049 1.049 0 00-.497 2.039l34.517 8.419H23.933a7.348 7.348 0 00-7.341 7.34v20.971a7.327 7.327 0 006.293 7.236v1.156a1.049 1.049 0 001.048 1.048h2.098a1.05 1.05 0 001.048-1.048v-1.049h29.363v1.049a1.05 1.05 0 001.048 1.048h2.097a1.049 1.049 0 001.05-1.048v-1.156a7.328 7.328 0 006.291-7.236v-20.97a7.342 7.342 0 00-5.664-7.132zM31.274 51.73a2.097 2.097 0 100 4.195 2.097 2.097 0 000-4.195zm17.827 2.097a11.535 11.535 0 1111.535-11.535 11.547 11.547 0 01-11.535 11.535zm0-25.168a13.632 13.632 0 1013.63 13.633 13.648 13.648 0 00-13.63-13.633zm-27.265 6.292h8.39a1.05 1.05 0 00.968-1.45 1.05 1.05 0 00-.968-.647h-8.39a1.049 1.049 0 000 2.097zm0 12.584h8.39a1.049 1.049 0 100-2.097h-8.39a1.049 1.049 0 100 2.097zm2.098 6.293a1.049 1.049 0 110-2.097 1.049 1.049 0 010 2.096zm0-4.195a3.146 3.146 0 100 6.292 3.146 3.146 0 000-6.293zm-2.098-8.392h8.39a1.049 1.049 0 100-2.097h-8.39a1.049 1.049 0 000 2.097z" fill="#002B59"/></svg><svg fill="none" viewBox="0 0 77 77" id="icon_exposition_link_2" xmlns="http://www.w3.org/2000/svg"><path d="M38.5 77C59.763 77 77 59.763 77 38.5S59.763 0 38.5 0 0 17.237 0 38.5 17.237 77 38.5 77z" fill="#EFEFEF"/><path d="M42.284 21.628H39.05v9.73h3.233v-9.73z" fill="#FF9F43"/><path d="M41.44 20.26c1.64.25 2.236.948 2.236 2.615v7.383c0 1.678-.456 2.271-2.102 2.699v1.998h-2.066v-1.988c-.17-.045-.298-.081-.426-.111a2.078 2.078 0 01-1.703-2.084c-.017-2.784-.017-5.57 0-8.356a2.053 2.053 0 011.527-2.017c.095-.031.188-.067.324-.115a5.197 5.197 0 00-1.994-2.839 7.222 7.222 0 00-3.774-1.28 12.522 12.522 0 00-6.961 1.209 8.343 8.343 0 00-4.674 6.96 28.738 28.738 0 002.011 14.205c.16.377.36.736.54 1.103.023.044.056.084.145.215.332-1.38.676-2.661 2.375-2.761V21.375h2.071v4.145h7.32v2.138h-7.27v9.41h23v-9.4h-7.27v-2.099h7.302v-4.197h2.088V37.08c1.303.11 1.884.884 2.204 2.039 1.288 4.652 2.623 9.29 3.928 13.938.104.378.158.769.161 1.16.017 1.898.011 3.795.006 5.692 0 1.548-.828 2.392-2.359 2.392-11.7.004-23.401.004-35.102 0-1.538 0-2.358-.845-2.364-2.391 0-1.88-.102-3.767.035-5.64a19.02 19.02 0 01.804-3.576c.703-2.563 1.455-5.12 2.168-7.683a.878.878 0 00-.06-.652 22.465 22.465 0 01-3.381-8.773 32.154 32.154 0 01-.527-8.671c.497-5.64 3.776-9.592 9.602-10.654a13.556 13.556 0 016.973.374c2.647.923 4.425 2.685 5.142 5.443.019.063.042.124.07.183zM22.72 53.864H58.33l-4.096-14.441-.115.02v2.883h-2.074v-3.088h-1.889c.693 4.2 1.382 8.353 2.075 12.536H28.816l2.078-12.55h-1.917v3.098H26.89v-2.855l-.077-.008-4.092 14.405zm.018 6.302h35.556v-4.14H22.74v4.14zM38.346 39.21c-.29 3.496-.58 6.96-.872 10.464h6.103c-.293-3.507-.584-6.98-.874-10.465h-4.357zm-2.112.008h-3.206c-.578 3.48-1.156 6.95-1.743 10.49 1.253 0 2.44-.015 3.63.009.384.008.476-.122.505-.49.175-2.313.381-4.624.574-6.934.08-1.016.157-2.03.24-3.075zm13.536 10.49l-1.744-10.475h-3.17a.423.423 0 00-.022.092c.274 3.365.55 6.73.83 10.093a.397.397 0 00.262.276c1.258.018 2.515.012 3.843.012v.002zm-8.24-18.94v-8.34h-2v8.34h2z" fill="#002B59"/><path d="M41.561 58.096a1.038 1.038 0 11-1.037-1.047h.011a1.06 1.06 0 011.026 1.047z" fill="#002B59"/></svg><svg fill="none" viewBox="0 0 77 77" id="icon_exposition_link_3" xmlns="http://www.w3.org/2000/svg"><path d="M38.5 77C59.763 77 77 59.763 77 38.5S59.763 0 38.5 0 0 17.237 0 38.5 17.237 77 38.5 77z" fill="#EFEFEF"/><path fill-rule="evenodd" clip-rule="evenodd" d="M17.514 56.923l.308-2.52 1.143-2.357 2.322-1.184 1.278-.715a4.802 4.802 0 002.68 2.64l-1.63 2.57-1.447 2.024-3.203.457-.994-.08-.457-.835z" fill="#FF9F43"/><path d="M14.197 60.115a.95.95 0 110 1.899.95.95 0 010-1.899zM38.443 36.04a.947.947 0 110 1.893.947.947 0 010-1.894zM49.51 29.339a2.137 2.137 0 11-3.024-3.022 2.137 2.137 0 013.024 3.022zm-1.512-5.544a4.032 4.032 0 100 8.064 4.032 4.032 0 000-8.064zM25.081 52.664a.947.947 0 00-1.27.426l-1.128 2.266a3.127 3.127 0 01-2.576 1.72l-1.313.09a.562.562 0 01-.596-.597l.09-1.312a3.127 3.127 0 011.72-2.576l2.265-1.128a.947.947 0 00-.845-1.696l-2.267 1.126a5.03 5.03 0 00-2.765 4.142l-.09 1.312a2.456 2.456 0 002.619 2.618l1.312-.09a5.03 5.03 0 004.142-2.767l1.128-2.266a.947.947 0 00-.426-1.268z" fill="#002B59"/><path d="M59.644 16.65a26.579 26.579 0 01-10.263 19.72L34.523 47.9a20.067 20.067 0 01-3.43-2.536l5.007-5.007a.948.948 0 10-1.34-1.34l-5.004 5.005a20.064 20.064 0 01-2.43-3.313L39.509 25.71a26.684 26.684 0 0118.96-9.778l.881-.056a.3.3 0 01.298.19.3.3 0 01.02.123l-.023.46zM46.452 44.76a14.146 14.146 0 01-4.17 10.068l-4.06 4.058-.565-11.02 8.795-6.826v3.72zm-15.768 4.36c-.494.412-1 .835-1.472 1.222a10.409 10.409 0 01-4.22-4.217l2.045-2.428a22 22 0 004.638 4.597c-.328.271-.661.55-.99.825zm-14.31-12.084l4.059-4.059a14.146 14.146 0 0110.055-4.17l3.97.117-7.05 8.68-11.034-.568zm44.534-22.424a2.194 2.194 0 00-1.679-.625l-.885.055A28.587 28.587 0 0038.04 24.516l-2.076 2.556-5.434-.158h-.027a16.028 16.028 0 00-11.409 4.723l-5.565 5.566a.946.946 0 00.621 1.616l11.778.605-.48.591a.945.945 0 00-.097 1.05c.185.34.378.674.58 1.002l-2.794 3.316a.948.948 0 00-.132 1.016 12.334 12.334 0 005.925 5.922.947.947 0 001.003-.121c.601-.488 1.295-1.067 1.967-1.627.478-.398.967-.808 1.425-1.184.273.166.55.324.83.476a.945.945 0 001.033-.084l.646-.501.608 11.83a.948.948 0 001.616.622l5.564-5.564a16.028 16.028 0 004.724-11.408v-5.19l2.196-1.704a28.47 28.47 0 0010.995-21.124l.023-.46a2.195 2.195 0 00-.65-1.67z" fill="#002B59"/></svg><svg fill="none" viewBox="0 0 78 78" id="icon_exposition_link_4" xmlns="http://www.w3.org/2000/svg"><path d="M38.725 77.45c21.387 0 38.724-17.338 38.724-38.725S60.112 0 38.725 0C17.338 0 0 17.338 0 38.725S17.338 77.45 38.725 77.45z" fill="#EFEFEF"/><path fill-rule="evenodd" clip-rule="evenodd" d="M20.225 34.413L26.265 32l6.089 2.413L33 39.04l-1.87 4.336-3.764 3.495-1.83.13-3.54-2.759-1.291-3.985L20 36.931l.225-2.518z" fill="#FF9F43"/><path d="M45.832 13.865c-6.856 0-13.796 1.673-13.796 4.87v1.622H13.371a2.436 2.436 0 00-2.434 2.435V42.27a2.435 2.435 0 002.434 2.434h.812v5.524l-3.188 7.97a.82.82 0 00-.058.3v2.435a1.624 1.624 0 001.623 1.623h30.837a1.624 1.624 0 001.623-1.623v-2.433a.82.82 0 00-.057-.3l-3.189-7.972v-.87c1.318.132 2.67.215 4.057.215 6.856 0 13.796-1.673 13.796-4.869V18.734c0-3.196-6.94-4.869-13.795-4.869zm0 1.623c7.43 0 12.172 1.922 12.172 3.246s-4.742 3.246-12.172 3.246a33.562 33.562 0 01-8.002-.887 2.422 2.422 0 00-1.738-.735h-.477c-1.432-.618-1.958-1.24-1.958-1.623.002-1.324 4.745-3.247 12.175-3.247zm-32.46 6.492h22.72a.812.812 0 01.812.812v4.058H12.56v-4.058a.812.812 0 01.811-.812zM12.56 42.27V28.473h24.345v13.796a.812.812 0 01-.813.81h-3.78a10.506 10.506 0 001.348-5.125v-3.8a.811.811 0 00-.526-.76l-6.494-2.436a.821.821 0 00-.569 0l-6.49 2.435a.81.81 0 00-.529.76v3.8c.004 1.796.468 3.561 1.347 5.126h-7.028a.811.811 0 01-.811-.811zm8.115-4.314v-3.24l5.68-2.13 5.681 2.13v3.24a8.969 8.969 0 01-5.68 8.317 8.968 8.968 0 01-5.681-8.317zm.837 6.748a10.506 10.506 0 004.382 3.13l.173.065a.814.814 0 00.568 0l.173-.066a10.502 10.502 0 004.391-3.129h4.893a2.435 2.435 0 002.434-2.434v-8.927h.812a.812.812 0 01.812.811v15.42H15.806v-4.87h5.706zM33.48 57.687l-.657-2.631a.812.812 0 00-.787-.615h-8.115a.812.812 0 00-.787.615l-.657 2.631h-9.53l2.597-6.492h24.87l2.596 6.492h-9.53zm-1.672 0H24.15l.405-1.622h6.847l.406 1.622zM12.56 60.934V59.31h30.837v1.623H12.56zm33.272-12.985a39.253 39.253 0 01-4.057-.22v-4.87c1.347.143 2.702.217 4.057.221 4.847 0 9.723-.84 12.172-2.46v4.083c0 1.323-4.742 3.246-12.172 3.246zm0-6.492a37.441 37.441 0 01-4.057-.227v-4.86c1.347.143 2.702.216 4.057.22 4.847 0 9.723-.84 12.172-2.46v4.082c0 1.322-4.742 3.245-12.172 3.245zm0-6.492a37.441 37.441 0 01-4.057-.227v-.585a2.434 2.434 0 00-2.435-2.434h-.812v-2.321c2.405.477 4.85.711 7.302.7 4.847 0 9.723-.84 12.172-2.46v4.08c.002 1.324-4.74 3.247-12.17 3.247zm0-6.493a35.22 35.22 0 01-7.301-.72v-4.835c2.405.47 4.85.701 7.301.689 4.847 0 9.723-.84 12.172-2.46v4.083c0 1.32-4.742 3.244-12.172 3.244z" fill="#002B59"/><path d="M54.758 23.603h1.623v1.623h-1.623v-1.623zM51.512 24.417h1.623v1.623h-1.623v-1.623zM48.266 25.226h1.622v1.623h-1.622v-1.623zM54.758 30.096h1.623v1.623h-1.623v-1.623zM51.512 30.907h1.623v1.623h-1.623v-1.623zM48.266 31.719h1.622v1.623h-1.622v-1.623zM54.758 36.588h1.623v1.623h-1.623v-1.623zM51.512 37.399h1.623v1.621h-1.623V37.4zM48.266 38.21h1.622v1.623h-1.622v-1.622zM54.758 43.08h1.623v1.622h-1.623V43.08zM51.512 43.891h1.623v1.623h-1.623V43.89zM48.266 44.703h1.622v1.623h-1.622v-1.623zM50.7 17.923h-9.737v1.623H50.7v-1.623zM14.183 23.603h1.622v1.623h-1.622v-1.623zM17.43 23.603h1.622v1.623h-1.623v-1.623zM20.675 23.603h1.623v1.623h-1.623v-1.623zM25.544 42.268a.811.811 0 00.574-.237l4.057-4.058-1.147-1.148-3.484 3.484-1.86-1.861-1.148 1.148 2.435 2.434a.812.812 0 00.573.238z" fill="#002B59"/></svg><svg fill="none" viewBox="0 0 42 42" id="icon_exposition_mobile" xmlns="http://www.w3.org/2000/svg"><path d="M5.179 12.946h29.777a1.294 1.294 0 011.294 1.295v18.125a1.295 1.295 0 01-1.294 1.295H6.473a1.295 1.295 0 01-1.294-1.295v-19.42zM5.179 12.947l25.893-7.768" stroke="#002B59" stroke-width="3" stroke-linecap="round" stroke-linejoin="round"/><path d="M25.893 27.187a3.884 3.884 0 100-7.767 3.884 3.884 0 000 7.767zM11.651 20.067h3.884M11.651 26.54h3.884" stroke="#002B59" stroke-width="3" stroke-linecap="round" stroke-linejoin="round"/></svg><svg fill="none" viewBox="0 0 142 142" id="icon_laba_main" xmlns="http://www.w3.org/2000/svg"><g filter="url(#ofilter0_d_247_2247)"><ellipse cx="70.645" cy="66.661" rx="66.645" ry="66.661" fill="#fff"/></g><g filter="url(#ofilter1_d_247_2247)"><g filter="url(#ofilter2_d_247_2247)"><path d="M46.957 59.913a1.841 1.841 0 01-1.485-.726 1.863 1.863 0 01-.365-1.383c.032-.243.111-.478.234-.69 2.356-4.01 9.527-13.372 25.173-13.372 6.78 0 12.727 1.816 17.666 5.396 4.066 2.937 6.344 6.262 7.43 7.864a1.863 1.863 0 01.29 1.4 1.866 1.866 0 01-.271.676 1.868 1.868 0 01-1.905.802 1.894 1.894 0 01-1.2-.786c-1.964-2.88-7.953-11.644-22.01-11.644-13.721 0-19.924 8.065-21.945 11.524a1.85 1.85 0 01-.68.693c-.284.165-.606.25-.932.246z" fill="#003268"/></g><g filter="url(#ofilter3_d_247_2247)"><path d="M78.396 96.558a1.837 1.837 0 01-.463-.053c-11.35-2.867-15.587-14.435-15.76-14.916l-.027-.106c-.093-.334-2.37-8.267 1.126-12.914 1.603-2.118 4.04-3.205 7.258-3.205 2.993 0 5.151.948 6.635 2.911 1.223 1.603 1.712 3.58 2.185 5.484.993 3.966 1.71 6.049 5.841 6.263 1.814.093 3.006-.988 3.682-1.91 1.827-2.51 2.145-6.605.767-10.22-1.77-4.664-8.051-13.46-19.127-13.46-4.728 0-9.072 1.55-12.556 4.46-2.883 2.413-5.168 5.818-6.268 9.317-2.04 6.516.636 16.758.661 16.852a1.883 1.883 0 01-.193 1.423 1.836 1.836 0 01-.483.543 1.797 1.797 0 01-.652.308 1.85 1.85 0 01-1.41-.184 1.912 1.912 0 01-.88-1.137c-.123-.467-2.98-11.391-.624-18.921 2.567-8.16 10.489-16.386 22.409-16.386 5.51 0 10.714 1.91 15.058 5.515 3.364 2.804 6.112 6.57 7.55 10.336 1.827 4.807 1.337 10.202-1.246 13.727-1.721 2.35-4.172 3.58-6.887 3.446-7.073-.361-8.344-5.395-9.27-9.067-.954-3.767-1.564-5.582-5.205-5.582-2 0-3.404.56-4.278 1.722-1.192 1.59-1.285 4.073-1.153 5.875.087 1.256.296 2.5.624 3.713.29.748 4.079 10.22 13.15 12.512.235.057.456.16.651.305.195.144.36.327.485.537a1.877 1.877 0 01.21 1.415c-.111.402-.348.757-.675 1.009a1.854 1.854 0 01-1.135.388z" fill="#003268"/></g><g filter="url(#ofilter4_d_247_2247)"><path d="M63.829 95.7c-.255 0-.506-.051-.74-.152a1.893 1.893 0 01-.624-.435c-4.543-4.86-7.112-10.296-8.079-17.092v-.037c-.543-4.499.252-10.869 4.145-15.248 2.874-3.232 6.914-4.875 11.986-4.875 6 0 10.714 2.844 13.654 8.212 2.133 3.9 2.556 7.786 2.567 7.946a1.915 1.915 0 01-.418 1.375 1.85 1.85 0 01-.56.461c-.215.115-.45.185-.69.208a1.84 1.84 0 01-1.36-.4 1.911 1.911 0 01-.693-1.257 19.454 19.454 0 00-2.183-6.641c-2.278-4.1-5.745-6.183-10.33-6.183-3.96 0-7.059 1.215-9.19 3.614-3.074 3.459-3.668 8.787-3.246 12.311.847 6.01 3.112 10.79 7.112 15.063a1.838 1.838 0 01.5 1.336 1.862 1.862 0 01-.593 1.295 1.867 1.867 0 01-1.258.499z" fill="#003268"/></g><g filter="url(#ofilter5_d_247_2247)"><path d="M84.754 90.347c-3.973 0-7.35-1.122-10.053-3.351-5.43-4.461-6.038-11.726-6.065-12.032a1.928 1.928 0 01.443-1.385 1.843 1.843 0 012.632-.208c.376.328.609.795.647 1.298.014.108.556 6.05 4.742 9.472 2.476 2.017 5.786 2.817 9.865 2.35.488-.06.979.079 1.366.386.388.308.64.76.701 1.257a1.893 1.893 0 01-.398 1.379c-.153.191-.342.35-.556.466a1.799 1.799 0 01-.689.21c-.874.105-1.754.157-2.635.158zm3.139-49.528c-1.55-1.028-7.046-4.087-17.38-4.087-10.846 0-16.355 3.38-17.574 4.238-.08.05-.156.109-.225.174a.044.044 0 01-.027.013 1.884 1.884 0 00-.622 1.39 1.91 1.91 0 00.559 1.32 1.809 1.809 0 001.312.53c.389 0 .767-.121 1.086-.347.052-.04 4.794-3.592 15.495-3.592 10.702 0 15.47 3.54 15.52 3.565.326.246.721.378 1.126.374a1.81 1.81 0 001.313-.532 1.91 1.91 0 00.556-1.324c0-.37-.108-.731-.311-1.038a1.83 1.83 0 00-.828-.684z" fill="#003268"/></g></g><defs><filter id="ofilter0_d_247_2247" x="0" y="0" width="141.29" height="141.322" filterUnits="userSpaceOnUse" color-interpolation-filters="sRGB"><feFlood flood-opacity="0" result="BackgroundImageFix"/><feColorMatrix in="SourceAlpha" values="0 0 0 0 0 0 0 0 0 0 0 0 0 0 0 0 0 0 127 0" result="hardAlpha"/><feOffset dy="4"/><feGaussianBlur stdDeviation="2"/><feComposite in2="hardAlpha" operator="out"/><feColorMatrix values="0 0 0 0 0 0 0 0 0 0 0 0 0 0 0 0 0 0 0.25 0"/><feBlend in2="BackgroundImageFix" result="effect1_dropShadow_247_2247"/><feBlend in="SourceGraphic" in2="effect1_dropShadow_247_2247" result="shape"/></filter><filter id="ofilter1_d_247_2247" x="41.09" y="36.732" width="58.843" height="67.826" filterUnits="userSpaceOnUse" color-interpolation-filters="sRGB"><feFlood flood-opacity="0" result="BackgroundImageFix"/><feColorMatrix in="SourceAlpha" values="0 0 0 0 0 0 0 0 0 0 0 0 0 0 0 0 0 0 127 0" result="hardAlpha"/><feOffset dy="4"/><feGaussianBlur stdDeviation="2"/><feComposite in2="hardAlpha" operator="out"/><feColorMatrix values="0 0 0 0 0 0 0 0 0 0 0 0 0 0 0 0 0 0 0.25 0"/><feBlend in2="BackgroundImageFix" result="effect1_dropShadow_247_2247"/><feBlend in="SourceGraphic" in2="effect1_dropShadow_247_2247" result="shape"/></filter><filter id="ofilter2_d_247_2247" x="40.09" y="42.742" width="60.843" height="26.172" filterUnits="userSpaceOnUse" color-interpolation-filters="sRGB"><feFlood flood-opacity="0" result="BackgroundImageFix"/><feColorMatrix in="SourceAlpha" values="0 0 0 0 0 0 0 0 0 0 0 0 0 0 0 0 0 0 127 0" result="hardAlpha"/><feOffset dy="4"/><feGaussianBlur stdDeviation="2.5"/><feComposite in2="hardAlpha" operator="out"/><feColorMatrix values="0 0 0 0 0 0 0 0 0 0 0 0 0 0 0 0 0 0 0.4 0"/><feBlend in2="BackgroundImageFix" result="effect1_dropShadow_247_2247"/><feBlend in="SourceGraphic" in2="effect1_dropShadow_247_2247" result="shape"/></filter><filter id="ofilter3_d_247_2247" x="42.179" y="49.707" width="57.04" height="55.852" filterUnits="userSpaceOnUse" color-interpolation-filters="sRGB"><feFlood flood-opacity="0" result="BackgroundImageFix"/><feColorMatrix in="SourceAlpha" values="0 0 0 0 0 0 0 0 0 0 0 0 0 0 0 0 0 0 127 0" result="hardAlpha"/><feOffset dy="4"/><feGaussianBlur stdDeviation="2.5"/><feComposite in2="hardAlpha" operator="out"/><feColorMatrix values="0 0 0 0 0 0 0 0 0 0 0 0 0 0 0 0 0 0 0.4 0"/><feBlend in2="BackgroundImageFix" result="effect1_dropShadow_247_2247"/><feBlend in="SourceGraphic" in2="effect1_dropShadow_247_2247" result="shape"/></filter><filter id="ofilter4_d_247_2247" x="49.233" y="56.861" width="42.512" height="47.838" filterUnits="userSpaceOnUse" color-interpolation-filters="sRGB"><feFlood flood-opacity="0" result="BackgroundImageFix"/><feColorMatrix in="SourceAlpha" values="0 0 0 0 0 0 0 0 0 0 0 0 0 0 0 0 0 0 127 0" result="hardAlpha"/><feOffset dy="4"/><feGaussianBlur stdDeviation="2.5"/><feComposite in2="hardAlpha" operator="out"/><feColorMatrix values="0 0 0 0 0 0 0 0 0 0 0 0 0 0 0 0 0 0 0.4 0"/><feBlend in2="BackgroundImageFix" result="effect1_dropShadow_247_2247"/><feBlend in="SourceGraphic" in2="effect1_dropShadow_247_2247" result="shape"/></filter><filter id="ofilter5_d_247_2247" x="47.065" y="35.732" width="46.978" height="63.615" filterUnits="userSpaceOnUse" color-interpolation-filters="sRGB"><feFlood flood-opacity="0" result="BackgroundImageFix"/><feColorMatrix in="SourceAlpha" values="0 0 0 0 0 0 0 0 0 0 0 0 0 0 0 0 0 0 127 0" result="hardAlpha"/><feOffset dy="4"/><feGaussianBlur stdDeviation="2.5"/><feComposite in2="hardAlpha" operator="out"/><feColorMatrix values="0 0 0 0 0 0 0 0 0 0 0 0 0 0 0 0 0 0 0.4 0"/><feBlend in2="BackgroundImageFix" result="effect1_dropShadow_247_2247"/><feBlend in="SourceGraphic" in2="effect1_dropShadow_247_2247" result="shape"/></filter></defs></svg><svg fill="none" viewBox="0 0 282 79" id="logo_museum" xmlns="http://www.w3.org/2000/svg"><path d="M100.84 22.44h-4.9V34H93.2V20h10.38v14h-2.74V22.44zm4.693 4.56c0-2.333.514-4.127 1.54-5.38 1.027-1.267 2.494-1.9 4.4-1.9 1 0 1.874.173 2.62.52a4.93 4.93 0 011.86 1.48c.494.64.86 1.407 1.1 2.3.24.893.36 1.887.36 2.98 0 2.333-.52 4.133-1.56 5.4-1.026 1.253-2.486 1.88-4.38 1.88-1.013 0-1.893-.173-2.64-.52a4.946 4.946 0 01-1.86-1.48c-.48-.64-.84-1.407-1.08-2.3-.24-.893-.36-1.887-.36-2.98zm2.88 0c0 .707.06 1.36.18 1.96.12.587.3 1.093.54 1.52.254.427.574.76.96 1 .387.24.847.36 1.38.36.974 0 1.727-.38 2.26-1.14.534-.76.8-1.993.8-3.7 0-.68-.06-1.313-.18-1.9a5.087 5.087 0 00-.52-1.54c-.24-.44-.553-.78-.94-1.02-.386-.253-.86-.38-1.42-.38-.973 0-1.726.393-2.26 1.18-.533.773-.8 1.993-.8 3.66zm17.947-4.56h-2.98c-.053 1.267-.113 2.42-.18 3.46-.067 1.04-.16 1.98-.28 2.82-.107.827-.253 1.56-.44 2.2a6.582 6.582 0 01-.72 1.66c-.187.307-.4.56-.64.76-.227.2-.467.36-.72.48-.253.12-.507.2-.76.24-.24.053-.467.08-.68.08-.307 0-.567-.027-.78-.08-.2-.04-.4-.107-.6-.2l.3-2.36a1.572 1.572 0 00.48.08c.213 0 .42-.053.62-.16.213-.107.393-.287.54-.54.2-.293.373-.72.52-1.28.147-.573.273-1.3.38-2.18.12-.88.213-1.927.28-3.14.067-1.227.113-2.653.14-4.28h8.26v14h-2.74V22.44zm13.301 3.8l.16-1.82h-.1l-.94 1.88-5.22 7.7h-2.06V20h2.74v7.62l-.2 1.88h.12l.98-1.94 5.22-7.56h2.04v14h-2.74v-7.76zm15.1-3.8h-4.08V34h-2.74V22.44h-4.1V20h10.92v2.44zm1.427-2.44h8.3v2.44h-5.56v3.26h5.06v2.44h-5.06v3.42h5.66V34h-8.4V20zm13.75 6.88l-3.9-6.88h3.3l2.16 4.04.48 1.42.46-1.42 2.26-4.04h2.98l-4.04 6.74 4.24 7.26h-3.26l-2.46-4.32-.54-1.48-.52 1.48-2.48 4.32h-2.98l4.3-7.12zm17.216 1.26h-5.12V34h-2.74V20h2.74v5.7h5.12V20h2.74v14h-2.74v-5.86zm13.327-1.9l.16-1.82h-.1l-.94 1.88-5.22 7.7h-2.06V20h2.74v7.62l-.2 1.88h.12l.98-1.94 5.22-7.56h2.04v14h-2.74v-7.76zm7.62-6.24v4.44c0 .8.154 1.4.46 1.8.32.387.84.58 1.56.58.507 0 .98-.053 1.42-.16.454-.12.814-.293 1.08-.52V20h2.74v14h-2.74v-5.64c-.346.2-.813.387-1.4.56-.573.16-1.26.24-2.06.24-.56 0-1.073-.067-1.54-.2a3.348 3.348 0 01-1.2-.68 3.294 3.294 0 01-.78-1.2c-.186-.493-.28-1.087-.28-1.78V20h2.74zm9.669 0h8.3v2.44h-5.56v3.26h5.06v2.44h-5.06v3.42h5.66V34h-8.4V20zm19.93 13.42c-.427.307-.974.527-1.64.66-.654.133-1.327.2-2.02.2a7.54 7.54 0 01-2.4-.38 5.28 5.28 0 01-1.98-1.26c-.574-.587-1.034-1.34-1.38-2.26-.334-.933-.5-2.06-.5-3.38 0-1.373.186-2.52.56-3.44.386-.933.88-1.68 1.48-2.24a5.373 5.373 0 012.04-1.22 6.931 6.931 0 012.24-.38c.8 0 1.473.053 2.02.16.56.107 1.02.233 1.38.38l-.54 2.32a3.981 3.981 0 00-1.1-.32c-.414-.067-.92-.1-1.52-.1-1.107 0-2 .393-2.68 1.18-.667.787-1 2.007-1 3.66 0 .72.08 1.38.24 1.98.16.587.4 1.093.72 1.52.333.413.74.74 1.22.98.493.227 1.06.34 1.7.34.6 0 1.106-.06 1.52-.18.413-.12.773-.273 1.08-.46l.56 2.24zm5.151-5.4h-.72V34h-2.74V20h2.74v6.2l.64-.28 3.86-5.92h3.12l-4.08 5.88-1.08.76 1.12.78 4.66 6.58h-3.38l-4.14-5.98zm17.103-1.78l.16-1.82h-.1l-.94 1.88-5.22 7.7h-2.06V20h2.74v7.62l-.2 1.88h.12l.98-1.94 5.22-7.56h2.04v14h-2.74v-7.76zm13.32 0l.16-1.82h-.1l-.94 1.88-5.22 7.7h-2.06V20h2.74v7.62l-.2 1.88h.12l.98-1.94 5.22-7.56h2.04v14h-2.74v-7.76zm-3.9-9.72c.053.427.207.733.46.92.267.187.607.28 1.02.28.893 0 1.387-.393 1.48-1.18l2.22.34c-.147.84-.533 1.453-1.16 1.84-.613.387-1.467.58-2.56.58-.547 0-1.047-.04-1.5-.12a4.381 4.381 0 01-1.2-.38 2.639 2.639 0 01-.84-.74c-.213-.307-.347-.687-.4-1.14l2.48-.4zM104.06 52.74l.3-2.78h-.12l-.86 2.24-2.98 5.22h-.88l-3.14-5.24-.88-2.22h-.1l.4 2.76V60h-2.6V46h2.5l3.74 6.4.66 1.6h.08l.6-1.64 3.54-6.36h2.48v14h-2.74v-7.26zm9.816-.56l.4 1.82h.12l.32-1.88 2.1-6.12h2.82l-3.72 9.68c-.293.76-.58 1.42-.86 1.98-.267.56-.56 1.027-.88 1.4-.307.36-.653.633-1.04.82-.387.173-.84.26-1.36.26-.44 0-.8-.033-1.08-.1-.267-.053-.56-.18-.88-.38l.7-2.22c.227.12.433.193.62.22.187.027.387.04.6.04.627 0 1.067-.493 1.32-1.48L107.816 46h3.22l2.84 6.18zm7.887 1.62v-2.14h1.44l.54-.04c.174-.027.314-.053.42-.08a2.934 2.934 0 001.2-.56c.334-.28.5-.653.5-1.12 0-.64-.206-1.073-.62-1.3-.4-.24-.933-.36-1.6-.36-.6 0-1.16.08-1.68.24-.52.16-.913.313-1.18.46l-.7-2.32c.147-.08.354-.167.62-.26.28-.093.594-.18.94-.26a9.858 9.858 0 012.42-.3c.587 0 1.16.053 1.72.16.56.107 1.06.293 1.5.56.44.267.794.627 1.06 1.08.267.44.4 1.007.4 1.7 0 .693-.186 1.333-.56 1.92-.36.587-.946 1.013-1.76 1.28v.1c.867.173 1.54.547 2.02 1.12.494.573.74 1.34.74 2.3 0 .76-.153 1.413-.46 1.96a3.978 3.978 0 01-1.22 1.32c-.493.347-1.066.6-1.72.76-.653.173-1.32.26-2 .26-.88 0-1.68-.073-2.4-.22-.72-.147-1.273-.32-1.66-.52l.7-2.38c.307.147.747.3 1.32.46.574.147 1.254.22 2.04.22.294 0 .587-.033.88-.1.307-.08.58-.2.82-.36a1.97 1.97 0 00.58-.66c.147-.267.22-.587.22-.96 0-.627-.233-1.1-.7-1.42-.466-.32-1.3-.493-2.5-.52-.16-.013-.28-.02-.36-.02h-.96zm9.328-7.8h8.3v2.44h-5.56v3.26h5.06v2.44h-5.06v3.42h5.66V60h-8.4V46zm18.609 6.24l.16-1.82h-.1l-.94 1.88-5.22 7.7h-2.06V46h2.74v7.62l-.2 1.88h.12l.98-1.94L150.4 46h2.04v14h-2.74v-7.76zm-3.9-9.72c.053.427.207.733.46.92.267.187.607.28 1.02.28.893 0 1.387-.393 1.48-1.18l2.22.34c-.147.84-.533 1.453-1.16 1.84-.613.387-1.467.58-2.56.58-.547 0-1.047-.04-1.5-.12a4.381 4.381 0 01-1.2-.38 2.639 2.639 0 01-.84-.74c-.213-.307-.347-.687-.4-1.14l2.48-.4zm16.859 9.18h1.86c.173-1.907.733-3.38 1.68-4.42.946-1.04 2.273-1.56 3.98-1.56 1.013 0 1.88.173 2.6.52.72.347 1.306.84 1.76 1.48.466.64.806 1.407 1.02 2.3.226.893.34 1.887.34 2.98 0 2.333-.48 4.133-1.44 5.4-.96 1.253-2.387 1.88-4.28 1.88-.88 0-1.66-.147-2.34-.44a4.783 4.783 0 01-1.7-1.24c-.467-.533-.834-1.18-1.1-1.94-.267-.76-.44-1.6-.52-2.52h-1.86V60h-2.74V46h2.74v5.7zm4.66 1.3c0 .707.046 1.36.14 1.96.106.587.266 1.093.48 1.52.226.427.52.76.88 1 .373.24.826.36 1.36.36.973 0 1.686-.38 2.14-1.14.466-.76.7-1.993.7-3.7 0-.68-.047-1.313-.14-1.9a5.104 5.104 0 00-.44-1.54 2.455 2.455 0 00-.88-1.02c-.36-.253-.82-.38-1.38-.38-.96 0-1.68.393-2.16 1.18-.467.773-.7 1.993-.7 3.66zm16.029 5.48c-.253.04-.513.067-.78.08-.267.013-.553.02-.86.02-.64 0-1.233-.107-1.78-.32a4.005 4.005 0 01-1.44-1.02c-.4-.467-.72-1.047-.96-1.74-.227-.707-.34-1.54-.34-2.5 0-.907.113-1.713.34-2.42.24-.72.573-1.327 1-1.82.44-.507.96-.893 1.56-1.16.6-.267 1.267-.4 2-.4.173 0 .387.007.64.02.253.013.46.04.62.08v-1.7h2.68v1.76c.253-.067.54-.107.86-.12.333-.027.6-.04.8-.04.653 0 1.253.12 1.8.36.547.227 1.02.58 1.42 1.06.413.467.733 1.053.96 1.76.227.693.333 1.5.32 2.42.013.947-.107 1.78-.36 2.5s-.6 1.327-1.04 1.82c-.44.48-.953.847-1.54 1.1-.573.24-1.193.36-1.86.36-.213 0-.447-.007-.7-.02a4.5 4.5 0 01-.66-.12v1.96h-2.68v-1.92zm3.7-9.08c-.133.013-.313.027-.54.04-.227.013-.42.04-.58.08v6.8c.12.027.26.04.42.04.173 0 .333.007.48.02.373-.013.72-.087 1.04-.22.32-.133.6-.347.84-.64.24-.293.427-.66.56-1.1.133-.44.193-.973.18-1.6.013-1.067-.193-1.9-.62-2.5-.427-.6-1.02-.907-1.78-.92zm-4.64 6.96h.48a2.01 2.01 0 00.56-.1v-6.78a2.36 2.36 0 00-.46-.04 6.294 6.294 0 00-.48-.02c-.733 0-1.347.287-1.84.86-.493.56-.74 1.46-.74 2.7 0 1.08.227 1.913.68 2.5.453.587 1.053.88 1.8.88zm15.433-4.18l.4 1.82h.12l.32-1.88 2.1-6.12h2.82l-3.72 9.68c-.293.76-.58 1.42-.86 1.98-.267.56-.56 1.027-.88 1.4-.307.36-.653.633-1.04.82-.387.173-.84.26-1.36.26-.44 0-.8-.033-1.08-.1-.267-.053-.56-.18-.88-.38l.7-2.22c.227.12.433.193.62.22.187.027.387.04.6.04.627 0 1.067-.493 1.32-1.48L191.781 46h3.22l2.84 6.18z" fill="#003268"/><path d="M71.636 68.106c-7.098 6.41-23.922 16.924-52.234 6.467-2.011-.744-4.821-2.204-6.778-3.081-1.716-.772-3.852-2.188-5.509-3.081-1.207-.642-1.983-1.343-3.118-2.103-1.206-.822-2.518-2.162-3.293-3.391-.677-1.053-.971-3.208-.404-6.214.265-1.403.833-2.934 1.232-4.313.463-1.474.622-2.272 1.233-3.697.828-1.943 2.178-4.25 3.08-6.162a92.245 92.245 0 011.85-3.698c.709-1.359 1.687-2.965 2.413-4.313.298-.552.938-1.317 1.283-1.849 1.174-1.82 2.172-3.311 3.37-5.117.859-1.294 1.704-2.61 2.68-3.815 1.723-2.131 3.533-4.192 5.319-6.268 1.386-1.617 2.744-3.246 4.209-4.783a69.076 69.076 0 014.487-4.317 76.341 76.341 0 015.245-4.21 19.585 19.585 0 013.272-1.754c1.222-.608 2.483-1.335 3.775-1.778 1.42-.47 2.925-.741 4.414-.584 1.228.203 2.581.559 3.774.91 2.067.565 4.246 1.664 5.9 3.013 1.156.893 2.485 2.004 3.467 3.08 1.482 1.617 2.638 3.32 3.982 5.054a23.684 23.684 0 011.965 3.199c1.01 1.856 1.962 3.742 2.922 5.626.163.316.173.711.323 1.033.272.585.43 1.092.667 1.689.452 1.16 1.397 2.353 1.85 3.518 8.564 26.43 4.59 33.884 4.275 34.466-1.043 2.012-3.964 4.946-5.651 6.473zM45.718 1.194l-.026-.117c-.819.216-1.636.405-2.428.66-.457.173-.903.375-1.333.607a36.78 36.78 0 00-4.377 2.086 45.978 45.978 0 00-5.128 3.87 68.684 68.684 0 00-5.29 5c-1.91 2.022-3.656 4.203-5.474 6.315-.245.28-.514.546-.75.833-1.27 1.55-2.592 3.065-3.79 4.67-1.093 1.465-2.072 3.014-3.069 4.553-1.343 2.09-2.752 4.153-3.945 6.328-1.474 2.69-2.739 5.497-4.128 8.229a49.896 49.896 0 00-3.067 7.25 26.402 26.402 0 00-.902 3.262c-.938 5.731-.033 6.875.884 8.177a11.232 11.232 0 004.22 3.391c2.192 1.122 4.465 2.095 6.73 3.071a47.609 47.609 0 004.483 1.735c25.357 8.025 39.465.574 41.052-.189a64.45 64.45 0 005.69-3.192 32.59 32.59 0 003.837-2.69 17.744 17.744 0 005.874-7.368c.398-1.24.707-2.506.923-3.79.099-11.915-3.932-25.311-4.315-26.332-.26-.69-.449-1.416-.724-2.093-.474-1.17-.985-2.339-1.485-3.5-.41-.949-.769-1.923-1.26-2.83-.749-1.384-1.569-2.732-2.4-4.073-.68-1.096-1.372-2.194-2.145-3.235-.843-1.123-1.775-2.185-2.692-3.253-.873-1.01-1.718-2.07-2.685-2.999a17.446 17.446 0 00-2.863-2.26 25.097 25.097 0 00-3.056-1.391 13.159 13.159 0 00-4.93-.964 7.49 7.49 0 00-1.438.234l.007.005z" fill="#FF9F43"/><path d="M44.428 29.805c-1.485-.033-2.74-1.266-4.467-.345l.768.39c.384.17.755.37 1.11.594.14.1.152.38.277.733-.431-.119-.663-.177-.89-.25a4.999 4.999 0 00-3.069-.02c-.677.14-1.377.14-2.054 0a2.263 2.263 0 01-1.664-1.479 3.575 3.575 0 00-1.352-1.514 1.777 1.777 0 01-.475-2.561c.411-.586.69-1.354 1.232-1.729a15.732 15.732 0 012.859-1.317c.373-.152.766-.25 1.166-.29a4.488 4.488 0 012.67.796 14.265 14.265 0 004.19 1.854c.2.01.4-.024.586-.102.253-.079.496-.187.742-.282l.154.206c-.158.144-.302.389-.475.411a5.58 5.58 0 01-3.272-.269 17.682 17.682 0 00-3.174-1.251 2.602 2.602 0 00-2.344 1.1 19.63 19.63 0 00-1.397 1.77.614.614 0 00.187.94c.236.098.5.112.746.041.587-.09 1.163-.275 1.752-.327a5.725 5.725 0 013.837.922c.566.386 1.17.713 1.756 1.07a3.038 3.038 0 002.59.092A11.961 11.961 0 0149.4 28.3c.907.079 1.798.29 2.644.629.515.147.995.43 1.513.55.362.07.736.05 1.089-.055.673-.192 1.327-.457 1.984-.703a.692.692 0 00.356-.245c.389-.713.736-1.45 1.128-2.162.189-.382.432-.734.72-1.047a11.616 11.616 0 012.21-1.936 3.055 3.055 0 014.071.4c.243.254.395.58.436.929-.041.411-.072.832-.125 1.254-.107.838-.837 1.168-1.384 1.628a22.651 22.651 0 00-2.713 2.23 4.101 4.101 0 00-.857 3.948 90.27 90.27 0 011.438 5.862c.206 1.053.307 2.123.301 3.196-.05.808-.156 1.611-.318 2.405-.074.493-.15.99-.262 1.475a13.617 13.617 0 01-2.607 5.231 41.25 41.25 0 01-3.638 3.852 1.865 1.865 0 00-.748 1.488 15.263 15.263 0 01-.367 2.341 8.143 8.143 0 00-.17 1.946 3.056 3.056 0 01-2.587 2.735c-3.515-.056-7.031-.02-10.547-.065a16.148 16.148 0 01-2.39-.327 8.342 8.342 0 00-1.016-.127c-.645-.263-1.292-.524-1.937-.792a1.32 1.32 0 01-.343-.185 4.948 4.948 0 00-3.165-.951c-1.82-.062-3.647.025-5.466-.01-.946.009-1.89-.087-2.815-.286a18.265 18.265 0 01-3.622-1.266c-.737-.364-.928-1.291-1.026-2.088a10.655 10.655 0 00-1.027-3.866 23.748 23.748 0 00-1.86-2.67 8.382 8.382 0 01-1.588-3.716c-.034-.223-.154-.432-.205-.655a1.956 1.956 0 01-.073-.808 8.976 8.976 0 012.625-4.517c.802-.86 1.66-1.667 2.57-2.413a20.935 20.935 0 013.286-1.58c1.82-.806 3.754-.422 5.642-.475a6.898 6.898 0 011.792.376c1.246.308 2.508.573 3.728.964 1.085.35 2.128.832 3.18 1.278 1.051.446 2.034.906 3.064 1.322a.831.831 0 00.594-.166c.298-.167.566-.382.792-.638a3.391 3.391 0 011.901-.91 1.822 1.822 0 011.027.062 18.69 18.69 0 011.782.738 9.552 9.552 0 013.492 2.972c.822 1.05 1.52 2.19 2.337 3.383l.468-.38c-.136-.206-.206-.357-.307-.488a3.073 3.073 0 01-.253-2.846 3.654 3.654 0 011.598-1.886 3.51 3.51 0 001.027-1.52 4.325 4.325 0 00.205-3.7c-.11-.205-.442-.503-.571-.46a1.027 1.027 0 00-.581.595c-.137.455-.199.93-.183 1.404.02.584-.228 1.057-.747.968-.357-.062-.725-.573-.91-.968-.153-.325 0-.779-.058-1.163a2.506 2.506 0 00-2.779-2.174 6.882 6.882 0 01-3.222-.617 2.646 2.646 0 01-1.643-3.108c.067-.224.113-.454.137-.687zM33.425 58.297l.102-.226a1.82 1.82 0 00-.395-.344 9.193 9.193 0 01-3.19-2.78c-1.277-1.58-1.535-3.567-2.151-5.406-.146-.448-.357-.871-.504-1.32a13.281 13.281 0 00-.586-1.96c-.698-1.39-1.477-2.734-2.257-4.08-.542-.93-1.155-1.825-1.722-2.744-.306-.493-.778-.524-1.087-.03-.205.318-.308.694-.524.998-.575.822-1.206 1.593-1.782 2.41-1.587 2.26-.493 3.596.984 4.28 1.575.725 3.2 1.34 4.78 2.056a4.11 4.11 0 012.333 2.783 3.544 3.544 0 01-1.062 3.145c-.549.68-.4 1.255.451 1.51.852.256 1.765.412 2.644.641.972.249 1.939.516 2.906.78.355.081.71.176 1.06.287zm7.088-15.942a2.769 2.769 0 00-.684-.512c-1.111-.434-2.223-.88-3.365-1.216a37.713 37.713 0 00-4.158-1.032c-1.14-.17-2.293-.25-3.446-.237-.519.02-1.029.14-1.502.356-.594.246-.647.595-.285 1.13a7.39 7.39 0 003.633 2.504c.976.384 2.032.562 3.05.85.593.168 1.178.382 1.774.556.966.283 1.934.558 2.906.822.744.206 1.494.389 2.313.595a5.284 5.284 0 01-.237-3.83l.001.014zm-6.747 9.97c.025.258-.014.45.064.55.311.52.714.98 1.188 1.358a30.066 30.066 0 003.782 1.85c.815.27 1.653.465 2.503.584.984.206 1.972.383 2.956.58.14.037.278.085.411.144a.84.84 0 001.138-.724c.23-1.726-1.522-3.815-2.732-4.28a10.314 10.314 0 00-4.895-.693c-1.438.155-2.875.397-4.414.618l-.001.012z" fill="#003268"/></svg><svg fill="none" viewBox="0 0 51 51" id="logo_museum_mobile" xmlns="http://www.w3.org/2000/svg"><path d="M45.762 43.508c-4.534 4.095-15.282 10.81-33.368 4.13-1.284-.475-3.08-1.407-4.33-1.968-1.095-.493-2.46-1.397-3.519-1.968-.771-.41-1.266-.857-1.992-1.343-.77-.525-1.608-1.382-2.103-2.167-.433-.672-.62-2.049-.259-3.97.17-.896.533-1.874.788-2.755.295-.94.397-1.45.787-2.361.529-1.241 1.392-2.715 1.968-3.937.426-.904.719-1.473 1.181-2.362.454-.868 1.078-1.894 1.542-2.755.19-.353.6-.841.82-1.181.75-1.162 1.387-2.116 2.153-3.27.548-.825 1.088-1.667 1.712-2.436 1.1-1.361 2.257-2.678 3.397-4.004.886-1.033 1.754-2.074 2.69-3.056.914-.96 1.869-1.884 2.866-2.757a48.74 48.74 0 013.35-2.69c.66-.438 1.36-.814 2.09-1.12.78-.389 1.587-.853 2.412-1.136.907-.3 1.869-.474 2.82-.374.784.13 1.649.358 2.41.582 1.321.36 2.713 1.063 3.77 1.925.738.57 1.587 1.28 2.215 1.967.946 1.033 1.685 2.122 2.543 3.229.474.647.89 1.33 1.256 2.043.645 1.186 1.253 2.391 1.867 3.595.103.201.11.454.206.66.174.373.275.697.426 1.078.289.741.892 1.503 1.18 2.248C52.113 34.239 49.574 39 49.373 39.371c-.666 1.286-2.532 3.16-3.61 4.136zM29.205.763L29.19.688c-.523.138-1.046.258-1.551.421-.292.111-.577.24-.852.388-.96.383-1.895.828-2.796 1.333a29.36 29.36 0 00-3.275 2.472 43.862 43.862 0 00-3.38 3.194c-1.22 1.292-2.336 2.685-3.497 4.034-.157.18-.328.35-.478.532-.813.991-1.657 1.959-2.423 2.984-.697.936-1.323 1.925-1.96 2.908-.858 1.336-1.758 2.653-2.52 4.043-.941 1.718-1.75 3.511-2.637 5.256a31.87 31.87 0 00-1.96 4.633 16.865 16.865 0 00-.575 2.083c-.6 3.661-.021 4.392.564 5.223a7.176 7.176 0 002.696 2.167c1.4.716 2.852 1.338 4.299 1.962.935.417 1.891.787 2.864 1.108 16.199 5.126 25.211.367 26.225-.12 1.246-.619 2.459-1.3 3.635-2.04a20.803 20.803 0 002.45-1.718 11.335 11.335 0 003.753-4.707 17.3 17.3 0 00.59-2.421c.063-7.612-2.512-16.17-2.757-16.822-.166-.44-.286-.904-.462-1.336-.302-.748-.629-1.495-.949-2.237-.261-.606-.49-1.228-.804-1.808a51.548 51.548 0 00-1.533-2.601c-.436-.7-.877-1.402-1.371-2.067-.538-.718-1.134-1.396-1.72-2.078-.557-.646-1.097-1.322-1.715-1.916a11.138 11.138 0 00-1.829-1.444c-.63-.339-1.282-.636-1.952-.888-1-.406-2.07-.615-3.15-.616-.31.02-.618.07-.918.15l.004.003z" fill="#FF9F43"/><path d="M28.381 19.04c-.948-.021-1.75-.809-2.853-.22l.49.248c.246.11.483.237.71.38.09.064.097.243.176.468-.275-.076-.423-.113-.568-.16a3.194 3.194 0 00-1.96-.013c-.433.09-.88.09-1.313 0a1.446 1.446 0 01-1.062-.944 2.284 2.284 0 00-.864-.967 1.135 1.135 0 01-.304-1.636c.263-.375.441-.865.787-1.104.58-.341 1.191-.623 1.826-.842.239-.097.49-.16.746-.185a2.867 2.867 0 011.705.508 9.111 9.111 0 002.677 1.185.851.851 0 00.374-.066c.162-.05.317-.119.474-.18l.099.132c-.101.092-.193.248-.304.263a3.565 3.565 0 01-2.09-.172c-.649-.331-1.328-.6-2.027-.8a1.662 1.662 0 00-1.498.703c-.319.36-.617.737-.892 1.131a.393.393 0 00.119.6c.151.063.32.072.476.027.375-.058.743-.176 1.12-.209.86-.1 1.73.108 2.45.589.363.246.748.455 1.122.683a1.941 1.941 0 001.655.06 7.645 7.645 0 011.906-.44c.58.05 1.15.185 1.69.401.329.095.635.274.966.352.232.044.47.032.695-.036.43-.122.848-.291 1.268-.448a.442.442 0 00.228-.157c.248-.456.47-.926.72-1.381.12-.244.276-.47.46-.669.417-.47.891-.886 1.412-1.237a1.951 1.951 0 012.6.256c.155.162.253.37.28.593-.028.263-.047.532-.08.801-.069.536-.536.746-.885 1.04-.614.43-1.193.906-1.733 1.425a2.62 2.62 0 00-.547 2.522c.347 1.237.653 2.485.918 3.745.132.672.196 1.356.193 2.041-.033.516-.1 1.03-.204 1.536-.047.316-.095.633-.168.943a8.698 8.698 0 01-1.665 3.342 26.347 26.347 0 01-2.324 2.46 1.191 1.191 0 00-.477.951 9.737 9.737 0 01-.235 1.495 5.205 5.205 0 00-.108 1.244 1.952 1.952 0 01-1.653 1.746c-2.245-.035-4.492-.012-6.738-.04a10.312 10.312 0 01-1.526-.21 5.337 5.337 0 00-.65-.08c-.412-.169-.825-.336-1.237-.507a.845.845 0 01-.22-.118 3.16 3.16 0 00-2.021-.608c-1.163-.04-2.33.016-3.491-.006a8.14 8.14 0 01-1.8-.183 11.677 11.677 0 01-2.313-.809c-.47-.232-.592-.824-.655-1.333a6.809 6.809 0 00-.656-2.47 15.147 15.147 0 00-1.189-1.706A5.355 5.355 0 019.4 30.6c-.022-.142-.098-.275-.131-.418a1.25 1.25 0 01-.046-.516 5.735 5.735 0 011.676-2.886 16.92 16.92 0 011.642-1.541 13.37 13.37 0 012.1-1.009c1.162-.515 2.398-.27 3.604-.304.39.03.775.11 1.144.24.796.197 1.602.366 2.382.616.693.224 1.36.532 2.031.817.672.285 1.3.578 1.957.844a.531.531 0 00.38-.106 1.94 1.94 0 00.506-.407 2.166 2.166 0 011.215-.582c.217-.05.445-.036.655.04.388.137.768.294 1.139.471a6.101 6.101 0 012.23 1.899c.526.67.971 1.4 1.493 2.161l.3-.243c-.087-.131-.132-.228-.197-.311a1.963 1.963 0 01-.161-1.818c.19-.509.55-.935 1.02-1.206.301-.26.528-.594.656-.97a2.762 2.762 0 00.132-2.364c-.07-.13-.283-.322-.365-.294a.657.657 0 00-.372.38c-.087.29-.126.594-.116.897.012.373-.146.675-.478.618-.227-.04-.463-.366-.581-.618-.097-.207 0-.497-.037-.743a1.6 1.6 0 00-1.775-1.389 4.395 4.395 0 01-2.058-.394 1.69 1.69 0 01-1.05-1.985c.043-.143.072-.29.087-.439zm-7.029 18.201l.066-.144a1.166 1.166 0 00-.252-.22 5.872 5.872 0 01-2.039-1.776c-.815-1.009-.98-2.278-1.374-3.453-.093-.287-.227-.557-.321-.843a8.482 8.482 0 00-.374-1.253c-.447-.887-.944-1.746-1.443-2.606-.346-.595-.737-1.166-1.1-1.753-.195-.315-.497-.335-.694-.02-.131.204-.196.444-.335.638-.367.526-.77 1.018-1.138 1.54-1.014 1.443-.315 2.297.628 2.735 1.007.462 2.044.855 3.054 1.313a2.628 2.628 0 011.49 1.777 2.262 2.262 0 01-.678 2.01c-.35.434-.256.801.288.965.544.163 1.127.262 1.689.409.62.158 1.239.33 1.857.497.226.053.453.113.677.184zm4.529-10.184a1.768 1.768 0 00-.438-.327c-.71-.277-1.42-.562-2.149-.777a24.09 24.09 0 00-2.656-.659 13.893 13.893 0 00-2.202-.152c-.331.013-.657.09-.959.228-.38.157-.413.38-.182.722a4.72 4.72 0 002.321 1.6c.623.245 1.298.358 1.948.542.379.108.752.244 1.133.355.617.182 1.236.357 1.857.526.475.131.954.248 1.478.38a3.376 3.376 0 01-.152-2.447v.009zm-4.31 6.369c.015.165-.01.288.04.351.2.333.456.627.76.868a19.2 19.2 0 002.415 1.182 9.11 9.11 0 001.6.373c.628.131 1.26.244 1.888.37.09.024.177.054.262.092a.537.537 0 00.727-.462c.148-1.103-.972-2.437-1.745-2.734a6.59 6.59 0 00-3.127-.443c-.919.099-1.837.254-2.82.395v.008z" fill="#003268"/></svg><svg fill="none" viewBox="0 0 76 75" id="mobile_expo_main_icon_1" xmlns="http://www.w3.org/2000/svg"><path d="M38.16 74.397c20.543 0 37.198-16.655 37.198-37.199C75.358 16.654 58.703 0 38.159 0 17.615 0 .961 16.654.961 37.198s16.654 37.199 37.198 37.199z" fill="#DDD"/><path d="M48.402 52.726c6.551 0 11.861-5.31 11.861-11.861 0-6.551-5.31-11.862-11.86-11.862-6.551 0-11.862 5.31-11.862 11.862 0 6.55 5.31 11.86 11.861 11.86z" fill="#FF9F43"/><path d="M53.764 34.067l-4.867 4.867A1.914 1.914 0 0047.49 39a1.905 1.905 0 00-1.014 2.354l-4.87 4.87a1.013 1.013 0 001.433 1.433l4.87-4.87a1.905 1.905 0 002.42-2.42l4.868-4.869a1.013 1.013 0 00-1.432-1.432zm9.837 16.925a5.073 5.073 0 01-5.066 5.067H24.086a5.072 5.072 0 01-5.066-5.067V30.729a5.073 5.073 0 015.066-5.066h34.449A5.073 5.073 0 0163.6 30.73v20.263zM60.154 23.84a1.041 1.041 0 00-.366-.175L18.246 13.533a1.013 1.013 0 10-.48 1.97l33.35 8.134h-27.03a7.1 7.1 0 00-7.093 7.092v20.263a7.08 7.08 0 006.08 6.99V59.1a1.013 1.013 0 001.013 1.013h2.026a1.014 1.014 0 001.014-1.013v-1.013h28.37v1.013a1.014 1.014 0 001.012 1.013h2.027a1.014 1.014 0 001.013-1.013v-1.116a7.081 7.081 0 006.08-6.991V30.729a7.093 7.093 0 00-5.474-6.89zM31.18 49.98a2.027 2.027 0 100 4.054 2.027 2.027 0 000-4.054zm17.224 2.027a11.145 11.145 0 1111.145-11.145 11.157 11.157 0 01-11.145 11.145zm0-24.317a13.172 13.172 0 1013.17 13.172 13.186 13.186 0 00-13.17-13.172zM22.06 33.77h8.105a1.014 1.014 0 000-2.027H22.06a1.013 1.013 0 100 2.026zm0 12.158h8.105a1.013 1.013 0 000-2.026H22.06a1.013 1.013 0 100 2.026zm2.026 6.08a1.014 1.014 0 110-2.027 1.014 1.014 0 010 2.026zm0-4.054a3.04 3.04 0 100 6.08 3.04 3.04 0 000-6.08zm-2.026-8.108h8.105a1.014 1.014 0 000-2.026H22.06a1.013 1.013 0 000 2.026z" fill="#003268"/></svg><svg fill="none" viewBox="0 0 75 75" id="mobile_expo_main_icon_2" xmlns="http://www.w3.org/2000/svg"><path d="M37.46 74.397c20.544 0 37.199-16.655 37.199-37.199C74.659 16.654 58.004 0 37.46 0 16.916 0 .262 16.654.262 37.198S16.916 74.397 37.46 74.397z" fill="#DDD"/><path d="M41.117 39.898h-3.123v9.4h3.123v-9.4z" fill="#FF9F43"/><path d="M40.301 19.576c1.586.24 2.162.916 2.162 2.526v7.134c0 1.622-.44 2.194-2.03 2.607v1.931h-1.997v-1.921c-.165-.044-.288-.078-.412-.107a2.007 2.007 0 01-1.645-2.014c-.017-2.69-.017-5.381 0-8.073a1.984 1.984 0 011.475-1.95c.092-.03.181-.064.313-.11a5.02 5.02 0 00-1.926-2.743 6.976 6.976 0 00-3.647-1.236 12.098 12.098 0 00-6.726 1.167 8.061 8.061 0 00-4.515 6.725 27.766 27.766 0 001.943 13.725c.154.364.347.71.522 1.065.022.043.053.081.139.208.32-1.332.654-2.571 2.295-2.668v-15.19h2.001v4.006h7.072v2.065h-7.024v9.093h22.223v-9.083h-7.025v-2.027h7.056V20.65h2.018v15.177c1.258.106 1.82.854 2.129 1.97 1.244 4.495 2.534 8.977 3.795 13.467.1.365.153.742.155 1.122.016 1.832.011 3.665.006 5.498 0 1.496-.8 2.312-2.279 2.312-11.305.004-22.61.004-33.915 0-1.487 0-2.28-.817-2.284-2.31 0-1.817-.099-3.64.034-5.45.147-1.174.407-2.33.776-3.455.68-2.477 1.406-4.948 2.095-7.424a.849.849 0 00-.058-.63 21.705 21.705 0 01-3.267-8.476 31.07 31.07 0 01-.51-8.378c.481-5.45 3.649-9.268 9.278-10.294a13.097 13.097 0 016.737.362c2.558.892 4.276 2.594 4.969 5.259.018.06.04.12.067.177zM22.215 52.043H56.62L52.663 38.09l-.112.018v2.787h-2.003V37.91h-1.825c.67 4.058 1.335 8.071 2.005 12.112H28.105l2.008-12.125H28.26v2.993h-2.017v-2.758l-.075-.008-3.954 13.918zm.018 6.089h34.354v-4H22.234v4zm15.08-20.248l-.843 10.11h5.897l-.845-10.11h-4.209zm-2.04.007h-3.098c-.559 3.363-1.118 6.717-1.684 10.137 1.21 0 2.358-.015 3.506.008.372.008.461-.118.489-.474.17-2.234.368-4.468.555-6.7.076-.98.152-1.96.232-2.97zM48.35 48.028l-1.684-10.121h-3.063a.407.407 0 00-.02.088c.263 3.252.53 6.502.8 9.752a.384.384 0 00.254.267c1.215.017 2.43.012 3.712.012l.001.002zm-7.961-18.3V21.67h-1.932v8.06h1.932z" fill="#003268"/><path d="M40.421 56.133a1.002 1.002 0 11-1.002-1.012h.011a1.023 1.023 0 01.991 1.012z" fill="#003268"/></svg><svg fill="none" viewBox="0 0 75 76" id="mobile_expo_main_icon_3" xmlns="http://www.w3.org/2000/svg"><path d="M37.523 75.216c20.544 0 37.198-16.655 37.198-37.199C74.721 17.473 58.067.82 37.523.82 16.978.819.324 17.473.324 38.017s16.654 37.199 37.199 37.199z" fill="#DDD"/><path fill-rule="evenodd" clip-rule="evenodd" d="M17.246 55.82l.298-2.436 1.105-2.277 2.243-1.143 1.235-.692a4.64 4.64 0 002.59 2.55l-1.576 2.484-1.398 1.956-3.094.442-.961-.077-.442-.807z" fill="#FF9F43"/><path d="M14.042 58.9a.917.917 0 110 1.835.917.917 0 010-1.835zM37.468 35.64a.915.915 0 110 1.83.915.915 0 010-1.83zM48.161 29.167a2.066 2.066 0 11-2.922-2.921 2.066 2.066 0 012.922 2.921zm-1.46-5.356a3.896 3.896 0 100 7.792 3.896 3.896 0 000-7.792zM24.558 51.703a.916.916 0 00-1.228.412l-1.09 2.19a3.02 3.02 0 01-2.488 1.66l-1.268.087a.543.543 0 01-.577-.576l.087-1.268a3.02 3.02 0 011.661-2.488l2.19-1.09a.915.915 0 10-.817-1.639l-2.19 1.088a4.858 4.858 0 00-2.672 4.002l-.086 1.268a2.375 2.375 0 002.53 2.529l1.268-.087a4.857 4.857 0 004-2.673l1.09-2.19a.915.915 0 00-.41-1.225z" fill="#003268"/><path d="M57.953 16.906a25.678 25.678 0 01-9.917 19.053l-14.355 11.14a19.38 19.38 0 01-3.315-2.45l4.839-4.838a.915.915 0 10-1.295-1.294l-4.835 4.835a19.386 19.386 0 01-2.347-3.2l11.77-14.492a25.782 25.782 0 0118.318-9.447l.852-.055a.289.289 0 01.306.303l-.021.445zm-12.747 27.16a13.667 13.667 0 01-4.029 9.727l-3.921 3.921-.548-10.648 8.498-6.594v3.593zm-15.234 4.212c-.478.398-.968.807-1.423 1.181a10.056 10.056 0 01-4.078-4.074l1.977-2.346a21.25 21.25 0 004.48 4.44l-.956.799zM16.145 36.603l3.922-3.922a13.668 13.668 0 019.715-4.03l3.837.114-6.812 8.386-10.662-.548zm43.029-21.666a2.122 2.122 0 00-1.623-.604l-.854.053a27.619 27.619 0 00-19.62 10.12l-2.005 2.47-5.25-.153h-.027a15.486 15.486 0 00-11.022 4.564l-5.378 5.377a.915.915 0 00.6 1.561l11.38.585-.463.571a.912.912 0 00-.094 1.015c.178.328.365.65.56.968l-2.7 3.204a.916.916 0 00-.127.982 11.916 11.916 0 005.725 5.72.914.914 0 00.969-.116c.58-.472 1.252-1.031 1.9-1.572.462-.385.935-.78 1.377-1.144.264.16.531.314.802.46a.914.914 0 00.998-.08l.625-.485.587 11.43a.914.914 0 001.562.6l5.376-5.375a15.485 15.485 0 004.563-11.023v-5.014l2.122-1.646a27.51 27.51 0 0010.624-20.41l.022-.445a2.12 2.12 0 00-.63-1.614v.001z" fill="#003268"/></svg><svg fill="none" viewBox="0 0 78 78" id="mobile_expo_main_icon_4" xmlns="http://www.w3.org/2000/svg"><path d="M38.725 77.45c21.387 0 38.724-17.338 38.724-38.725S60.112 0 38.725 0C17.338 0 0 17.338 0 38.725S17.338 77.45 38.725 77.45z" fill="#EFEFEF"/><path fill-rule="evenodd" clip-rule="evenodd" d="M20.225 34.413L26.265 32l6.089 2.413L33 39.04l-1.87 4.336-3.764 3.495-1.83.13-3.54-2.759-1.291-3.985L20 36.931l.225-2.518z" fill="#FF9F43"/><path d="M45.832 13.865c-6.856 0-13.796 1.673-13.796 4.87v1.622H13.371a2.436 2.436 0 00-2.434 2.435V42.27a2.435 2.435 0 002.434 2.434h.812v5.524l-3.188 7.97a.82.82 0 00-.058.3v2.435a1.624 1.624 0 001.623 1.623h30.837a1.624 1.624 0 001.623-1.623v-2.433a.82.82 0 00-.057-.3l-3.189-7.972v-.87c1.318.132 2.67.215 4.057.215 6.856 0 13.796-1.673 13.796-4.869V18.734c0-3.196-6.94-4.869-13.795-4.869zm0 1.623c7.43 0 12.172 1.922 12.172 3.246s-4.742 3.246-12.172 3.246a33.562 33.562 0 01-8.002-.887 2.422 2.422 0 00-1.738-.735h-.477c-1.432-.618-1.958-1.24-1.958-1.623.002-1.324 4.745-3.247 12.175-3.247zm-32.46 6.492h22.72a.812.812 0 01.812.812v4.058H12.56v-4.058a.812.812 0 01.811-.812zM12.56 42.27V28.473h24.345v13.796a.812.812 0 01-.813.81h-3.78a10.506 10.506 0 001.348-5.125v-3.8a.811.811 0 00-.526-.76l-6.494-2.436a.821.821 0 00-.569 0l-6.49 2.435a.81.81 0 00-.529.76v3.8c.004 1.796.468 3.561 1.347 5.126h-7.028a.811.811 0 01-.811-.811zm8.115-4.314v-3.24l5.68-2.13 5.681 2.13v3.24a8.969 8.969 0 01-5.68 8.317 8.968 8.968 0 01-5.681-8.317zm.837 6.748a10.506 10.506 0 004.382 3.13l.173.065a.814.814 0 00.568 0l.173-.066a10.502 10.502 0 004.391-3.129h4.893a2.435 2.435 0 002.434-2.434v-8.927h.812a.812.812 0 01.812.811v15.42H15.806v-4.87h5.706zM33.48 57.687l-.657-2.631a.812.812 0 00-.787-.615h-8.115a.812.812 0 00-.787.615l-.657 2.631h-9.53l2.597-6.492h24.87l2.596 6.492h-9.53zm-1.672 0H24.15l.405-1.622h6.847l.406 1.622zM12.56 60.934V59.31h30.837v1.623H12.56zm33.272-12.985a39.253 39.253 0 01-4.057-.22v-4.87c1.347.143 2.702.217 4.057.221 4.847 0 9.723-.84 12.172-2.46v4.083c0 1.323-4.742 3.246-12.172 3.246zm0-6.492a37.441 37.441 0 01-4.057-.227v-4.86c1.347.143 2.702.216 4.057.22 4.847 0 9.723-.84 12.172-2.46v4.082c0 1.322-4.742 3.245-12.172 3.245zm0-6.492a37.441 37.441 0 01-4.057-.227v-.585a2.434 2.434 0 00-2.435-2.434h-.812v-2.321c2.405.477 4.85.711 7.302.7 4.847 0 9.723-.84 12.172-2.46v4.08c.002 1.324-4.74 3.247-12.17 3.247zm0-6.493a35.22 35.22 0 01-7.301-.72v-4.835c2.405.47 4.85.701 7.301.689 4.847 0 9.723-.84 12.172-2.46v4.083c0 1.32-4.742 3.244-12.172 3.244z" fill="#002B59"/><path d="M54.758 23.603h1.623v1.623h-1.623v-1.623zM51.512 24.417h1.623v1.623h-1.623v-1.623zM48.266 25.226h1.622v1.623h-1.622v-1.623zM54.758 30.096h1.623v1.623h-1.623v-1.623zM51.512 30.907h1.623v1.623h-1.623v-1.623zM48.266 31.719h1.622v1.623h-1.622v-1.623zM54.758 36.588h1.623v1.623h-1.623v-1.623zM51.512 37.399h1.623v1.621h-1.623V37.4zM48.266 38.21h1.622v1.623h-1.622v-1.622zM54.758 43.08h1.623v1.622h-1.623V43.08zM51.512 43.891h1.623v1.623h-1.623V43.89zM48.266 44.703h1.622v1.623h-1.622v-1.623zM50.7 17.923h-9.737v1.623H50.7v-1.623zM14.183 23.603h1.622v1.623h-1.622v-1.623zM17.43 23.603h1.622v1.623h-1.623v-1.623zM20.675 23.603h1.623v1.623h-1.623v-1.623zM25.544 42.268a.811.811 0 00.574-.237l4.057-4.058-1.147-1.148-3.484 3.484-1.86-1.861-1.148 1.148 2.435 2.434a.812.812 0 00.573.238z" fill="#002B59"/></svg></svg>